<svg xmlns="http://www.w3.org/2000/svg" viewBox="0 0 24 24" version="1.1" id="Coding-Apps-Website-Web-Dev-Cog-Api--Streamline-Ultimate.svg">
  <path d="M11.116848000000001 0.048527999999999995C10.874952 0.11191200000000001 10.673568000000001 0.22488 10.483464 0.40389600000000003C10.286616 0.589248 10.164719999999999 0.768432 10.082352 0.9935520000000001L10.02 1.164 10.008000000000001 2.25384L9.996 3.3436559999999997 9.684000000000001 3.4237680000000004C9.132024 3.5655119999999996 8.422968000000001 3.814296 7.805952 4.082736000000001L7.679904 4.137576 6.917952 3.3810480000000003C6.18276 2.651088 6.148824 2.62104 5.952 2.52576C5.69064 2.399256 5.516712 2.366496 5.190168 2.3823600000000003C4.64076 2.409024 4.528728 2.485392 3.468 3.556224C2.62812 4.40412 2.548896 4.4995199999999995 2.44392 4.789632C2.37156 4.989624 2.354712 5.445 2.411592 5.664C2.503104 6.01644 2.5606079999999998 6.090864 3.376608 6.913152C3.7898880000000004 7.329576 4.128 7.677504000000001 4.128 7.686288C4.128 7.695072 4.056888 7.872768 3.96996 8.081136C3.782112 8.531400000000001 3.5374800000000004 9.250224 3.424416 9.684000000000001L3.343104 9.996 2.253552 10.008000000000001L1.164 10.02 0.9935520000000001 10.082352C0.768432 10.164719999999999 0.589248 10.286616 0.40389600000000003 10.483464C0.22188 10.676736 0.111456 10.875912000000001 0.047400000000000005 11.126304000000001C0.005616 11.289744 0 11.393088 0 12C0 12.770760000000001 0.020904 12.917304 0.17224799999999998 13.207536C0.281184 13.41648 0.6113040000000001 13.741056 0.8160000000000001 13.840488C1.118832 13.987608 1.161888 13.992 2.301 13.992L3.335088 13.992 3.350568 14.058C3.3590640000000005 14.094312 3.423312 14.323800000000002 3.4933440000000004 14.568C3.6432239999999996 15.09072 3.7607280000000003 15.425040000000001 3.9768 15.943655999999999L4.134984 16.323312 3.391872 17.071656C2.983152 17.483256 2.615112 17.874 2.574 17.94C2.5328880000000003 18.006 2.4700800000000003 18.1464 2.43444 18.252C2.379984 18.413376000000003 2.36952 18.486096 2.368776 18.708000000000002C2.367768 19.010496 2.404512 19.166616 2.538288 19.428C2.61456 19.577064 2.724552 19.696344 3.514128 20.486232C4.387248 21.359688 4.40784 21.378287999999998 4.6080000000000005 21.47424C4.7202 21.528024 4.86924 21.583728 4.939176000000001 21.598008C5.122056000000001 21.635376 5.486424 21.63 5.65296 21.587471999999998C5.966736 21.507384 6.319896 21.272376 6.424272 21.074232C6.574992000000001 20.788152 6.407208 20.420976 6.095208 20.354064C5.939112 20.320608 5.821968 20.345376 5.6914560000000005 20.43948C5.63016 20.483688 5.554392 20.538192000000002 5.523072 20.560608000000002C5.44968 20.613144 5.215752 20.63004 5.096544 20.5914C5.024712 20.568144 4.835640000000001 20.39424 4.252032 19.814712C3.8384400000000003 19.404024 3.4722000000000004 19.020888000000003 3.438168 18.963336C3.361104 18.83292 3.352128 18.63108 3.4177440000000003 18.504C3.4416 18.457800000000002 3.852816 18.0258 4.331568 17.544C5.426928 16.44168 5.370144 16.57956 5.033376 15.84C4.735416 15.185664000000001 4.502376 14.514096 4.346232 13.859736000000002C4.192728 13.216392 4.175616000000001 13.176504 4.00836 13.072464000000002C3.9250560000000005 13.020648000000001 3.90804 13.019856 2.652 13.008000000000001C1.407288 12.996264 1.377936 12.994895999999999 1.284 12.944328C1.163496 12.87948 1.092672 12.804192 1.045152 12.690432000000001C0.990672 12.560064 0.990672 11.439936 1.045152 11.309568C1.092672 11.195808000000001 1.163496 11.12052 1.284 11.055672000000001C1.377936 11.005104 1.40724 11.003736 2.6538 10.992L3.9276000000000004 10.98 4.024848 10.915608C4.167984 10.820832 4.215 10.724184000000001 4.298112 10.353816C4.478784 9.548544 4.788048000000001 8.656656 5.132448 7.947552000000001C5.245920000000001 7.713888 5.271024000000001 7.5856319999999995 5.232048000000001 7.438295999999999C5.20704 7.343640000000001 5.1085199999999995 7.236048 4.332864 6.456C3.853752 5.974200000000001 3.4477680000000004 5.553 3.4306799999999997 5.5200000000000005C3.3803520000000002 5.422848 3.364512 5.286408 3.3894720000000005 5.165208000000001C3.4115279999999997 5.058216 3.456504 5.008008 4.2084 4.25148C4.651872 3.8052479999999997 5.038176 3.436128 5.081232 3.4174800000000003C5.183112 3.37332 5.379792 3.3749040000000003 5.489568 3.4207919999999996C5.5476 3.4450320000000003 5.87676 3.754728 6.4548 4.328976C7.5440879999999995 5.4110879999999995 7.447056 5.364624 8.040000000000001 5.08788C8.750976000000001 4.756032 9.35436 4.544808 10.167192 4.343208000000001C10.760688 4.195992 10.829496 4.166040000000001 10.924296 4.013568L10.98 3.924 10.992 2.652C11.003736 1.407288 11.005104 1.377936 11.055672000000001 1.284C11.12052 1.163496 11.195808000000001 1.092672 11.309568 1.045152C11.439936 0.990672 12.560064 0.990672 12.690432000000001 1.045152C12.804192 1.092672 12.87948 1.163496 12.944328 1.284C12.994895999999999 1.377936 12.996264 1.40724 13.008000000000001 2.6538L13.02 3.9276000000000004 13.084392 4.024848C13.179167999999999 4.167984 13.275816 4.215 13.646184 4.298112C14.451456 4.478784 15.343344000000002 4.788048000000001 16.052448 5.132448C16.286328 5.246016 16.414536 5.271048 16.561704000000002 5.231832C16.656288 5.206656 16.764576 5.107344 17.54412 4.330992C18.129888 3.747648 18.449784 3.446112 18.509352 3.4212239999999996C18.611832000000003 3.378408 18.805848 3.372456 18.904439999999997 3.409128C18.994272 3.442512 20.539296 4.98216 20.5824 5.081232C20.62668 5.1829920000000005 20.625144 5.3796479999999995 20.579208 5.489568C20.554992 5.547552 20.245008000000002 5.877192 19.671528000000002 6.4548C18.916152 7.215624 18.796656 7.345848 18.770616 7.4364479999999995C18.727752 7.585608000000001 18.754008000000002 7.69644 18.914136000000003 8.042544C19.249872 8.768256 19.465488 9.3864 19.6644 10.193376C19.80408 10.760136000000001 19.834896 10.830096000000001 19.986432 10.924296L20.076 10.98 21.348 10.992C22.592712000000002 11.003736 22.622064 11.005104 22.716 11.055672000000001C22.836503999999998 11.12052 22.907328 11.195808000000001 22.954848000000002 11.309568C23.009328 11.439936 23.009328 12.560064 22.954848000000002 12.690432000000001C22.907328 12.804192 22.836503999999998 12.87948 22.716 12.944328C22.622064 12.994895999999999 22.592712000000002 12.996264 21.348 13.008000000000001L20.076 13.02 19.984392 13.076952000000002C19.843344000000002 13.164648000000001 19.783776 13.277376000000002 19.716192000000003 13.584576C19.538544 14.39208 19.25352 15.227952000000002 18.895824 15.990456C18.749112 16.303176 18.726024 16.404072000000003 18.766584 16.554768000000003C18.865344 16.921560000000003 19.351248000000002 17.039808 19.612992 16.76076C19.810008 16.550736 20.345376 15.190104000000002 20.57496 14.316L20.656896 14.004 21.746448 13.992L22.836000000000002 13.98 23.006448 13.917648000000002C23.460888 13.751376000000002 23.85984 13.310448 23.953992 12.870384C23.970264 12.79428 23.99268 12.721728 24.003792 12.7092C24.0276 12.682344 24.031584000000002 11.240400000000001 24.007800000000003 11.264208C23.998896 11.273112000000001 23.972256 11.204184 23.948591999999998 11.11104C23.880984 10.844808 23.775192 10.668744 23.545176 10.43964C23.400528 10.295568000000001 23.293992 10.212936 23.184 10.159512C22.881168 10.012392 22.838088 10.008000000000001 21.699216 10.008000000000001L20.665344 10.008000000000001 20.630208 9.882C20.610864 9.812712 20.566368 9.648 20.531304000000002 9.516C20.430096000000002 9.135072 20.217432000000002 8.521776000000001 20.03412 8.08224L19.865184 7.677143999999999 20.62152 6.9165600000000005C21.355632 6.178344 21.380688 6.15 21.475224 5.952C21.600912 5.688744000000001 21.633408000000003 5.514936 21.61764 5.190168C21.603024 4.888968 21.548808 4.7096160000000005 21.403752 4.482648C21.27168 4.276008 19.723992 2.72832 19.517352 2.596248C19.290384 2.451192 19.111032 2.396976 18.809832 2.3823600000000003C18.485064 2.3665920000000003 18.311256 2.3990880000000003 18.048000000000002 2.524776C17.849952000000002 2.6193120000000003 17.821728 2.64432 17.081688 3.380232C16.334856000000002 4.1228880000000006 16.318032 4.1377440000000005 16.253688 4.111079999999999C15.356064 3.739368 14.902655999999999 3.578808 14.316 3.424944L14.004 3.343104 13.992 2.253552L13.98 1.164 13.917648000000002 0.9935520000000001C13.835280000000001 0.768432 13.713384 0.589248 13.516535999999999 0.40389600000000003C13.323264 0.22188 13.124088 0.111456 12.873696 0.047400000000000005C12.709224 0.005352 12.609623999999998 0.000144 11.99016 0.00132C11.382576 0.002472 11.269272 0.008592 11.116848000000001 0.048527999999999995M11.328 7.042056C10.359528 7.191479999999999 9.598992 7.520832 8.856 8.112576C8.592672 8.322288 8.189568000000001 8.738328 7.987704000000001 9.008735999999999C7.106688000000001 10.188864 6.785928 11.768088 7.1408640000000005 13.177871999999999C7.324104 13.905648000000001 7.678007999999999 14.621856000000001 8.124456 15.168336C8.395464 15.500064 8.99772 16.039128 9.2328 16.160376000000003C9.340104 16.21572 9.554472 16.211952 9.670632 16.152696C9.979992000000001 15.994871999999999 10.039992000000002 15.581688 9.787368 15.348768000000002C9.729648 15.295536 9.59256 15.182328 9.482736 15.097176C8.497752 14.333471999999999 7.897200000000001 12.945072000000001 8.014392 11.702544C8.136192 10.411344 8.747136 9.378072 9.815592 8.656296C10.778400000000001 8.00592 12.124224 7.830336 13.253256000000002 8.207808C14.09484 8.489184 14.830464000000001 9.047952 15.323136000000002 9.78C15.494784 10.035072 15.731424 10.53948 15.824160000000001 10.848C16.11288 11.808456 16.023264 12.877416 15.578784 13.77504C15.418104000000001 14.099544 15.244368000000001 14.354111999999999 14.964768000000001 14.674752C14.683416 14.99736 14.634264 15.136920000000002 14.725272 15.354768000000002C14.83512 15.617736 15.142992 15.742728 15.396 15.627047999999998C15.57264 15.546312 16.057848 14.974872 16.298904 14.563680000000002C16.762776 13.772471999999999 16.996920000000003 12.905616000000002 16.994664 11.988C16.994136 11.7768 16.987056 11.544599999999999 16.978920000000002 11.472C16.854528000000002 10.3632 16.366775999999998 9.323616 15.601128000000001 8.535408C15.166848 8.088288 14.730888000000002 7.772424 14.172 7.49988C13.72548 7.282104 13.353048 7.158887999999999 12.852 7.063056C12.588263999999999 7.012632 11.606424 6.999096000000001 11.328 7.042056M0.010656 12C0.010656 12.4026 0.013944 12.567312000000001 0.017952 12.366C0.02196 12.164712 0.02196 11.835288 0.017952 11.634C0.013944 11.432712 0.010656 11.5974 0.010656 12M9.651936 17.377416C8.912064 17.50908 8.274023999999999 18.070512 8.041656 18.794352C8.014272 18.87972 7.923336000000001 19.430736 7.837056 20.034288C7.75164 20.631743999999998 7.671168000000001 21.182544 7.658208 21.258288C7.6452480000000005 21.334032 7.569744 21.871199999999998 7.490424 22.452C7.383864 23.232192 7.351464 23.531280000000002 7.3663680000000005 23.597112C7.396751999999999 23.731344 7.466856000000001 23.835288 7.581216 23.915664C7.672464 23.979792 7.703592 23.988 7.856064000000001 23.988C8.004048000000001 23.988 8.041368 23.978856 8.124 23.922312C8.318976000000001 23.788944 8.322023999999999 23.77884 8.463096 22.805064C8.533296 22.32048 8.591016 21.910512 8.591376 21.894000000000002C8.591856000000002 21.870336 8.892672000000001 21.864024 10.014 21.86412L11.436 21.864216000000003 11.552088 22.69812C11.615952 23.156760000000002 11.679 23.576591999999998 11.692224 23.631096C11.758632 23.905056000000002 12.078624000000001 24.067944 12.354072000000002 23.968032C12.522744 23.906856 12.672 23.696784 12.672 23.520576000000002C12.672 23.467056 12.607944 22.967112 12.52968 22.409616C12.451392 21.85212 12.382464 21.352800000000002 12.376512 21.3C12.340392 20.97984 12.042432 18.999432000000002 12.013272 18.885576C11.83404 18.186048 11.245536000000001 17.59932 10.536 17.412816C10.352136 17.364504 9.839808000000001 17.343984000000003 9.651936 17.377416M15.228 17.384591999999998C15.111888 17.436504 14.996448 17.546784 14.94912 17.651016C14.907143999999999 17.743392 14.905032 17.887032 14.904528 20.670768000000002C14.904072000000001 23.259648000000002 14.908248 23.603736 14.941272 23.682768000000003C15.082512 24.020856000000002 15.525096000000001 24.105096 15.772728 23.841024C15.910728 23.693856 15.912 23.682528 15.912 22.59936L15.912 21.605184 16.626 21.593376000000003C17.371248 21.581015999999998 17.471496000000002 21.568944000000002 17.784 21.453648C18.162864 21.313872 18.55392 21.001104 18.786312000000002 20.652C18.944568 20.41428 19.021079999999998 20.236128 19.095552 19.932000000000002C19.154976 19.689432 19.149456 19.20084 19.084536 18.957768C18.883176 18.203568 18.312888 17.629632 17.556 17.419439999999998C17.373456 17.368752 17.313192 17.365776 16.332 17.359272C15.50904 17.353800000000003 15.285408000000002 17.358912 15.228 17.384591999999998M21.18444 17.376408C21.077592 17.408472 20.956056 17.514 20.899968 17.623392C20.78532 17.847024 20.857560000000003 18.12708 21.067992 18.274944C21.171384 18.347568 21.174192 18.348048 21.541992 18.356160000000003L21.912 18.364296 21.912 20.675952000000002L21.912 22.987608 21.558 22.995792C21.22152 23.003591999999998 21.198384 23.007288 21.090648 23.070648000000002C20.824968000000002 23.226816 20.76228 23.582232 20.958432000000002 23.820192000000002C21.108528000000003 24.002328 21.081048 23.998944 22.416 23.998944C23.521776 23.998944 23.610648 23.995872 23.7 23.954496000000002C24.040368 23.796912000000003 24.1026 23.351304 23.817096 23.115816C23.689056 23.010192 23.605224000000003 22.992288 23.238 22.992144L22.92 22.992 22.92 20.676000000000002L22.92 18.36 23.262 18.359472C23.640168 18.358895999999998 23.736624 18.33336 23.860728 18.201024C24.098208 17.947752 24.017568 17.544528000000003 23.7 17.397503999999998C23.610528000000002 17.35608 23.523984000000002 17.353152 22.428 17.354592C21.7812 17.355432 21.221591999999998 17.365248 21.18444 17.376408M9.703608000000001 18.405792C9.337200000000001 18.530712 9.059088 18.831312 8.979936 19.188C8.965296 19.254 8.909640000000001 19.6266 8.85624 20.016000000000002C8.802840000000002 20.4054 8.753088 20.753688 8.745672 20.79L8.732184 20.856 10.006104 20.856C11.173992 20.856 11.28 20.852712 11.28 20.8164C11.28 20.677680000000002 11.051544 19.185912000000002 11.012568000000002 19.069992C10.9026 18.743088 10.623048 18.483192000000003 10.284 18.392616C10.119168 18.3486 9.85368 18.3546 9.703608000000001 18.405792M15.912 19.476L15.912 20.592 16.508736000000003 20.592C16.836912 20.592 17.163576 20.580984 17.234616000000003 20.567496000000002C17.816664 20.45712 18.224208 19.874736000000002 18.124848 19.295376C18.083208 19.052544 17.990832 18.8766 17.809152 18.694176C17.640432 18.52476 17.474448 18.431688 17.260824 18.38676C17.186496 18.371112 16.879824 18.36 16.522824 18.36L15.912 18.36 15.912 19.476" stroke="none" fill="currentColor" fill-rule="evenodd"></path>
</svg>
