<svg xmlns="http://www.w3.org/2000/svg" fill="none" viewBox="0 0 96 96" id="Aws-Athena--Streamline-Svg-Logos.svg" height="48" width="48" stroke-width="1"><desc>Aws Athena Streamline Icon: https://streamlinehq.com</desc><path fill="url(#a)" d="M95 1H1v94h94V1Z"></path><path fill="#ffffff" d="M45.9965 32.9915c5.2784 0 8.1695 1.1826 8.6967 1.7757-.5272.593-3.4183 1.7756-8.6967 1.7756-5.2784 0-8.1695-1.1826-8.6967-1.7756.5272-.5931 3.4183-1.7757 8.6967-1.7757Zm-.6006 9.4654c-.1936-.0995-.3301-.2971-.3301-.5315 0-.3291.2659-.5978.5913-.5978.0945 0 .1808.0272.2613.0686l-.5225 1.0607Zm6.7957 9.7625c-.0875.071-.2881.2083-.7009.3741-.3674.1467-.8024.2793-1.2957.3953-1.3109.3078-2.9226.4771-4.5391.4771-3.5348 0-5.9979-.7635-6.5286-1.237l-1.5662-14.6266c2.4012.9825 5.9385 1.308 8.4354 1.308 2.4549 0 5.9152-.316 8.3153-1.2607l-.9365 6.4326c-1.7645-.6653-3.9664-1.6312-6.0528-2.6469-.2122-.7363-.8735-1.2785-1.6654-1.2785-.961 0-1.7424.7943-1.7424 1.7686 0 .9766.7814 1.7697 1.7424 1.7697.2274 0 .4443-.0474.6426-.1278 2.9156 1.4394 5.0883 2.3627 6.7234 2.9321l-.8315 5.72ZM34.9242 34.895l1.8881 17.6286c.133 3.2719 8.4844 3.3098 8.8436 3.3098 1.7879 0 3.5862-.1918 5.0639-.5374.6053-.1421 1.1534-.3102 1.628-.5007 1.3785-.554 2.1016-1.3093 2.1518-2.2433l.786-5.4027c.5353.1101.9727.1586 1.3214.1586 1.0974 0 1.3866-.4498 1.5861-.7599.2099-.3268.2705-.728.1726-1.1317-.224-.9281-1.5336-2.1497-2.4083-2.8754L57.063 34.94l-.0105-.0012c.0046-.058.0233-.1125.0233-.1716 0-3.2708-6.9648-4.1432-11.0793-4.1432s-11.0793.8724-11.0793 4.1432c0 .0438.0151.0828.0175.1266l-.0105.0012Zm10.5323-10.3248c10.165 0 18.4348 8.3941 18.4348 18.7118s-8.2698 18.7117-18.4348 18.7117c-10.1661 0-18.436-8.394-18.436-18.7117s8.2699-18.7118 18.436-18.7118ZM16.2573 50.1561v2.3675h10.4962v-.1397c3.3553 7.0718 10.467 11.9774 18.703 11.9774 11.4502 0 20.7673-9.456 20.7673-21.0793 0-11.6234-9.3171-21.0793-20.7673-21.0793-8.9089 0-16.5023 5.7341-19.4459 13.7482h-9.7533v2.3675h9.0372c-.3639 1.5235-.5773 3.1039-.5948 4.7351H13.9248v2.3675h10.8706c.1644 1.6443.5341 3.2234 1.0496 4.7351h-9.5877Zm63.5614 28.4352c-1.4111 1.4347-3.8579 1.443-5.2679.013L62.0207 65.8848c2.0164-1.5259 3.8159-3.3264 5.3589-5.34l12.4531 12.7006c.7009.7126 1.0869 1.662 1.0846 2.6717-.0012 1.0122-.3907 1.9604-1.0986 2.6742Zm1.6654-7.0174L68.7522 58.5868c2.8223-4.4107 4.4691-9.6642 4.4691-15.3048 0-15.5405-12.4555-28.1819-27.7648-28.1819-11.0012 0-20.9772 6.603-25.4171 16.8225l2.1342.9541c4.0667-9.36 13.2054-15.4091 23.2829-15.4091 14.0241 0 25.4323 11.5796 25.4323 25.8144 0 14.2335-11.4082 25.8143-25.4323 25.8143-9.3684 0-17.952-5.205-22.4035-13.5837l-2.0526 1.1246c4.8574 9.1458 14.2293 14.8266 24.4561 14.8266 5.3531 0 10.3551-1.5495 14.599-4.2248l12.8474 13.0403c1.1406 1.1577 2.6579 1.7958 4.2696 1.7958 1.6211 0 3.1477-.6428 4.2929-1.8064 1.1476-1.1578 1.7821-2.7014 1.7844-4.348.0035-1.6442-.6251-3.1879-1.7657-4.3468Z"></path><defs><linearGradient id="a" x1="1" x2="9401" y1="9401" y2="1" gradientUnits="userSpaceOnUse"><stop stop-color="#4D27A8"></stop><stop offset="1" stop-color="#A166FF"></stop></linearGradient></defs></svg>
