<svg xmlns="http://www.w3.org/2000/svg" viewBox="0 0 24 24" version="1.1" id="Database-2--Streamline-Ultimate.svg">
	<path d="M10.668000000000001 1.033464C6.389735999999999 1.303728 3.1193520000000006 2.647656 2.23116 4.500432C2.1212400000000002 4.729728000000001 2.050776 4.977936 2.016864 5.255376C1.982736 5.534448 1.982736 18.454848000000002 2.016864 18.756C2.2242480000000002 20.586336 4.699152 22.101288 8.508000000000001 22.729344C8.961768 22.804176 9.741048000000001 22.896096 10.368 22.948752C10.875192 22.991352 13.124808 22.991352 13.632 22.948752C14.258952 22.896096 15.038231999999999 22.804176 15.492 22.729344C19.303176 22.100904 21.775632 20.587464 21.983136000000002 18.756C22.017336 18.454104 22.01724 5.510112 21.983040000000003 5.231376C21.815568 3.86676 20.414328 2.678112 18.036 1.883112C16.825295999999998 1.478424 15.418104000000001 1.206936 13.8 1.0658640000000001C13.281528000000002 1.020648 11.209896 0.999216 10.668000000000001 1.033464M10.668000000000001 2.04144C8.369664 2.1969600000000002 6.39288 2.661384 4.94772 3.385392C3.7882080000000005 3.9663120000000003 3.121176 4.645608 3.01848 5.350104C2.929224 5.962464000000001 3.3681840000000003 6.627192 4.248 7.2120239999999995C5.2812 7.898808000000001 6.777096 8.418192 8.604000000000001 8.724456C9.745344 8.915784 10.625904 8.983344 11.988 8.984136C13.093032000000001 8.98476 13.598496 8.958456 14.496 8.853576C17.958503999999998 8.449008 20.61492 7.1871599999999995 20.961168 5.782464C21.012168 5.57556 21.010176 5.423472 20.953560000000003 5.2021440000000005C20.871672 4.881936 20.738496 4.661616 20.436744 4.34712C19.431456 3.2993280000000005 17.172888 2.461944 14.508000000000001 2.14896C13.670352 2.050584 13.358016 2.03436 12.168000000000001 2.027352C11.5146 2.023488 10.839599999999999 2.029824 10.668000000000001 2.04144M3 8.573088C3 9.728016 3.009 9.813024 3.163752 10.1196C3.4318079999999997 10.650599999999999 4.093224 11.198616 5.0040000000000004 11.644392C6.6294 12.439896 8.890320000000001 12.91548 11.358 12.980927999999999C13.998144 13.050984000000001 16.399704 12.694272 18.3 11.949864C19.723848 11.39208 20.67696 10.64604 20.934168 9.888C20.985216 9.737592000000001 20.987376 9.69252 20.994696 8.63076L21.002280000000003 7.529520000000001 20.911128 7.605048C20.494848 7.95 20.022816 8.256096000000001 19.5 8.52012C16.53264 10.01868 11.482752 10.43496 7.408632 9.516888C6.015456 9.202944 4.768992 8.730048 3.892104 8.182728000000001C3.676152 8.047944000000001 3.3292800000000002 7.7966880000000005 3.078 7.5930480000000005L3 7.5298560000000005 3 8.573088M3.0060960000000003 12.880344000000001C3.013416 14.079768000000001 3.019248 14.257968 3.054624 14.359895999999999C3.284592 15.022560000000002 3.9107760000000003 15.599424 4.97412 16.128263999999998C8.638200000000001 17.950488 15.3618 17.950488 19.02588 16.128263999999998C19.94376 15.671784 20.561016 15.157176 20.830344 14.623895999999998C20.991744 14.30436 20.984784 14.378544 20.993904 12.880344000000001L21.002232 11.516688 20.8152 11.676264000000002C19.561608 12.745895999999998 17.211384 13.562351999999999 14.532 13.859040000000002C13.534728000000001 13.969464 13.314312000000001 13.98 12 13.98C10.685688 13.98 10.465272 13.969464 9.468 13.859040000000002C7.543296 13.645920000000002 5.786184 13.168920000000002 4.46784 12.501648000000001C4.01184 12.270840000000002 3.4766160000000004 11.926776 3.184896 11.676936L2.9977679999999998 11.516688 3.0060960000000003 12.880344000000001M3 17.321832C3 18.522552 3.0033600000000003 18.629448 3.046368 18.797616C3.1338960000000005 19.139856 3.309552 19.41336 3.6523679999999996 19.741128C4.841016 20.877624 7.372944 21.705503999999998 10.368 21.937008000000002C11.22396 22.003176 12.776040000000002 22.003176 13.632 21.937008000000002C15.728856 21.774936 17.61444 21.320544 18.996 20.644392C20.030736 20.137944 20.721912 19.511664 20.934383999999998 18.888C20.986392 18.735336 20.987688 18.703056 20.99472 17.378904L21.001896 16.025832 20.91096 16.101384C20.355216000000002 16.563096 19.762368000000002 16.922112 19.032 17.239224C14.671248 19.13256 7.4028719999999995 18.858552 3.86496 16.667472C3.657264 16.538832000000003 3.315096 16.289232 3.09 16.102152L3 16.027344000000003 3 17.321832" stroke="none" fill="currentColor" fill-rule="evenodd"></path>
</svg>
