<svg xmlns="http://www.w3.org/2000/svg" xmlns:xlink="http://www.w3.org/1999/xlink" width="1080" zoomAndPan="magnify" viewBox="0 0 810 809.999993" height="1080" preserveAspectRatio="xMidYMid meet" version="1.0"><defs><g/><clipPath id="d7af0a96c1"><path d="M 43.5 10 L 767.203125 10 L 767.203125 800 L 43.5 800 Z M 43.5 10 " clip-rule="nonzero"/></clipPath><clipPath id="0d6c067e67"><path d="M 43.5 281.675781 L 43.5 528.097656 C 43.5 580.964844 71.75 629.835938 117.597656 656.269531 L 331.273438 779.472656 C 377.121094 805.90625 433.621094 805.90625 479.464844 779.472656 L 693.144531 656.269531 C 738.988281 629.835938 767.238281 580.964844 767.238281 528.097656 L 767.238281 281.675781 C 767.238281 228.808594 738.988281 179.9375 693.144531 153.503906 L 479.464844 30.300781 C 433.621094 3.867188 377.121094 3.867188 331.273438 30.300781 L 117.597656 153.503906 C 71.75 179.957031 43.5 228.808594 43.5 281.675781 Z M 43.5 281.675781 " clip-rule="nonzero"/></clipPath></defs><g clip-path="url(#d7af0a96c1)"><g clip-path="url(#0d6c067e67)"><path fill="#36699f" d="M 43.5 803.773438 L 43.5 6.226562 L 767.203125 6.226562 L 767.203125 803.773438 Z M 43.5 803.773438 " fill-opacity="1" fill-rule="nonzero"/></g></g><g fill="#ff00ff" fill-opacity="1"><g transform="translate(206.24592, 640.079332)"><g><path d="M 197.644531 0.652344 C 345.714844 0 407.03125 -73.710938 407.03125 -232.214844 C 407.03125 -391.375 345.714844 -452.039062 197.644531 -452.039062 L 105.671875 -452.039062 C 69.796875 -452.039062 50.226562 -431.816406 50.226562 -393.984375 C 50.226562 -196.339844 49.574219 -113.5 48.921875 -54.140625 C 48.921875 -18.917969 68.492188 0 104.367188 0 Z M 171.554688 -90.015625 C 170.902344 -112.195312 170.902344 -136.328125 170.902344 -159.8125 C 170.902344 -271.355469 170.902344 -317.015625 171.554688 -362.023438 L 195.035156 -362.023438 C 265.484375 -362.023438 286.355469 -326.144531 286.355469 -226.34375 C 286.355469 -138.9375 262.875 -90.015625 195.035156 -90.015625 Z M 171.554688 -90.015625 "/></g></g></g><g fill="#00ffff" fill-opacity="1"><g transform="translate(181.784409, 640.079332)"><g><path d="M 197.644531 0.652344 C 345.714844 0 407.03125 -73.710938 407.03125 -232.214844 C 407.03125 -391.375 345.714844 -452.039062 197.644531 -452.039062 L 105.671875 -452.039062 C 69.796875 -452.039062 50.226562 -431.816406 50.226562 -393.984375 C 50.226562 -196.339844 49.574219 -113.5 48.921875 -54.140625 C 48.921875 -18.917969 68.492188 0 104.367188 0 Z M 171.554688 -90.015625 C 170.902344 -112.195312 170.902344 -136.328125 170.902344 -159.8125 C 170.902344 -271.355469 170.902344 -317.015625 171.554688 -362.023438 L 195.035156 -362.023438 C 265.484375 -362.023438 286.355469 -326.144531 286.355469 -226.34375 C 286.355469 -138.9375 262.875 -90.015625 195.035156 -90.015625 Z M 171.554688 -90.015625 "/></g></g></g><g fill="#fbcccc" fill-opacity="1"><g transform="translate(194.015166, 640.079332)"><g><path d="M 197.644531 0.652344 C 345.714844 0 407.03125 -73.710938 407.03125 -232.214844 C 407.03125 -391.375 345.714844 -452.039062 197.644531 -452.039062 L 105.671875 -452.039062 C 69.796875 -452.039062 50.226562 -431.816406 50.226562 -393.984375 C 50.226562 -196.339844 49.574219 -113.5 48.921875 -54.140625 C 48.921875 -18.917969 68.492188 0 104.367188 0 Z M 171.554688 -90.015625 C 170.902344 -112.195312 170.902344 -136.328125 170.902344 -159.8125 C 170.902344 -271.355469 170.902344 -317.015625 171.554688 -362.023438 L 195.035156 -362.023438 C 265.484375 -362.023438 286.355469 -326.144531 286.355469 -226.34375 C 286.355469 -138.9375 262.875 -90.015625 195.035156 -90.015625 Z M 171.554688 -90.015625 "/></g></g></g></svg>