<svg xmlns="http://www.w3.org/2000/svg" fill="none" viewBox="-2.64 70 100 100" id="Dbt--Streamline-Svg-Logos" height="240" width="240">
  <desc>
    Dbt Streamline Icon: https://streamlinehq.com
  </desc>
  <path fill="#ff694a" d="M88.40424999999999 78.87299999999999c2.109 2.028 3.488 4.705 3.8125 7.62525 0 1.21675 -0.3245 2.028 -1.0545 3.569 -0.73 1.5412500000000002 -9.73425 17.116 -12.411000000000001 21.41525 -1.5412500000000002 2.5147500000000003 -2.3525 5.51625 -2.3525 8.43625 0 3.0014999999999996 0.81125 5.92175 2.3525 8.4365 2.67675 4.29925 11.681 19.955000000000002 12.411000000000001 21.49625 0.73 1.5412500000000002 1.0545 2.2712499999999998 1.0545 3.488 -0.3245 2.92025 -1.6225 5.597250000000001 -3.7314999999999996 7.544 -2.028 2.109 -4.70475 3.48825 -7.544 3.7314999999999996 -1.21675 0 -2.028 -0.3245 -3.488 -1.0545 -1.4602499999999998 -0.7302500000000001 -17.35925 -9.491 -21.658499999999997 -12.16775 -0.3245 -0.16225 -0.649 -0.40575 -1.0545 -0.5680000000000001l-21.253 -12.57325c0.4865 4.056 2.2712499999999998 7.94975 5.1915 10.78875 0.56775 0.56775 1.13575 1.0545 1.7845 1.5412500000000002 -0.48675 0.24325 -1.0545 0.48675 -1.5412500000000002 0.81125 -4.29925 2.67675 -19.955000000000002 11.681 -21.496225 12.411000000000001 -1.5412249999999998 0.73 -2.271325 1.0545 -3.569225 1.0545 -2.92025 -0.3245 -5.597149999999999 -1.6222500000000002 -7.544 -3.7312499999999997 -2.109075 -2.028 -3.488075 -4.705 -3.81255 -7.62525 0.081125 -1.21675 0.40559999999999996 -2.4335 1.0545499999999999 -3.488 0.73005 -1.5412500000000002 9.734175 -17.19725 12.411025 -21.496499999999997 1.54135 -2.5145 2.352475 -5.43475 2.352475 -8.43625 0 -3.0012499999999998 -0.8111250000000001 -5.9215 -2.352475 -8.43625 -2.67685 -4.4615 -11.7621 -20.117250000000002 -12.411025 -21.658499999999997 -0.6489499999999999 -1.0545 -0.973425 -2.2712499999999998 -1.0545499999999999 -3.488 0.32447499999999996 -2.92025 1.6223750000000001 -5.597250000000001 3.73145 -7.62525 2.02795 -2.109 4.7048499999999995 -3.407 7.6251 -3.7314999999999996 1.21675 0.08125 2.4335 0.40575 3.569225 1.05475 1.2978999999999998 0.56775 12.735475000000001 7.2195 18.819475 10.78875l1.379 0.811c0.4865 0.3245 0.89225 0.56775 1.21675 0.7302500000000001l0.649 0.4055 21.658499999999997 12.816749999999999c-0.48675 -4.86725 -3.0014999999999996 -9.32875 -6.895 -12.330000000000002 0.48675 -0.2435 1.0545 -0.48675 1.5412500000000002 -0.81125 4.29925 -2.677 19.955000000000002 -11.762250000000002 21.49625 -12.411000000000001 1.0545 -0.649 2.2712499999999998 -0.9735 3.56925 -1.05475 2.839 0.3245 5.516 1.6225 7.544 3.7314999999999996ZM48.494 125.7595l4.623749999999999 -4.624c0.649 -0.64875 0.649 -1.6222500000000002 0 -2.2712499999999998l-4.623749999999999 -4.623749999999999c-0.649 -0.649 -1.6222500000000002 -0.649 -2.2712499999999998 0l-4.623749999999999 4.623749999999999c-0.649 0.649 -0.649 1.6225 0 2.2712499999999998l4.623749999999999 4.624c0.56775 0.56775 1.6222500000000002 0.56775 2.2712499999999998 0Z" stroke-width="2.5"></path>
</svg>
