<?xml version="1.0" encoding="UTF-8" standalone="no"?>
<svg
   stroke="#ff3621"
   fill="#ff3621"
   height="800px"
   width="800px"
   version="1.1"
   id="Capa_1"
   viewBox="0 0 465 465"
   xml:space="preserve"
   sodipodi:docname="logo.svg"
   inkscape:version="1.4 (e7c3feb1, 2024-10-09)"
   xmlns:inkscape="http://www.inkscape.org/namespaces/inkscape"
   xmlns:sodipodi="http://sodipodi.sourceforge.net/DTD/sodipodi-0.dtd"
   xmlns="http://www.w3.org/2000/svg"
   xmlns:svg="http://www.w3.org/2000/svg"><defs
   id="defs1" /><sodipodi:namedview
   id="namedview1"
   pagecolor="#ffffff"
   bordercolor="#000000"
   borderopacity="0.25"
   inkscape:showpageshadow="2"
   inkscape:pageopacity="0.0"
   inkscape:pagecheckerboard="0"
   inkscape:deskcolor="#d1d1d1"
   inkscape:zoom="0.76065593"
   inkscape:cx="231.37925"
   inkscape:cy="401.62705"
   inkscape:window-width="1440"
   inkscape:window-height="788"
   inkscape:window-x="0"
   inkscape:window-y="25"
   inkscape:window-maximized="0"
   inkscape:current-layer="Capa_1"
   showgrid="true" />
    <path
   transform="rotate(180,232.5,232.5)"
   d="m 464.944,378.17 c -0.009,-0.073 -0.022,-0.144 -0.033,-0.216 -0.034,-0.233 -0.079,-0.462 -0.134,-0.688 -0.018,-0.072 -0.035,-0.143 -0.055,-0.215 -0.073,-0.265 -0.159,-0.525 -0.26,-0.777 -0.009,-0.023 -0.016,-0.047 -0.025,-0.069 -0.118,-0.287 -0.255,-0.565 -0.406,-0.833 -0.008,-0.014 -0.013,-0.03 -0.021,-0.044 L 268.158,33.188 c -0.034,-0.059 -0.073,-0.111 -0.108,-0.169 -0.081,-0.134 -0.163,-0.267 -0.253,-0.395 -0.066,-0.094 -0.136,-0.184 -0.205,-0.275 -0.076,-0.099 -0.152,-0.198 -0.232,-0.292 -0.087,-0.103 -0.178,-0.2 -0.27,-0.297 -0.073,-0.077 -0.145,-0.153 -0.22,-0.226 -0.101,-0.098 -0.206,-0.191 -0.311,-0.283 -0.078,-0.067 -0.155,-0.134 -0.235,-0.198 -0.105,-0.084 -0.213,-0.163 -0.322,-0.241 -0.092,-0.066 -0.185,-0.13 -0.28,-0.192 -0.1,-0.065 -0.202,-0.125 -0.305,-0.185 -0.112,-0.065 -0.225,-0.129 -0.341,-0.188 -0.091,-0.047 -0.184,-0.09 -0.276,-0.133 -0.131,-0.061 -0.262,-0.119 -0.397,-0.172 -0.086,-0.034 -0.174,-0.065 -0.261,-0.095 -0.141,-0.05 -0.283,-0.097 -0.428,-0.138 -0.091,-0.026 -0.183,-0.048 -0.275,-0.071 -0.14,-0.034 -0.28,-0.067 -0.423,-0.094 -0.11,-0.021 -0.221,-0.035 -0.332,-0.051 -0.125,-0.017 -0.25,-0.035 -0.378,-0.046 -0.14,-0.012 -0.28,-0.017 -0.42,-0.021 -0.079,-0.002 -0.156,-0.012 -0.236,-0.012 h -56.616 c -0.035,0 -0.069,0.006 -0.104,0.007 -0.258,0.004 -0.514,0.021 -0.77,0.051 -0.066,0.008 -0.131,0.014 -0.196,0.023 -0.593,0.086 -1.172,0.242 -1.728,0.466 -0.064,0.026 -0.127,0.054 -0.19,0.082 -0.227,0.098 -0.448,0.208 -0.664,0.328 -0.047,0.026 -0.095,0.05 -0.141,0.077 -0.516,0.302 -0.998,0.669 -1.435,1.096 -0.049,0.048 -0.096,0.098 -0.144,0.147 -0.164,0.169 -0.319,0.346 -0.468,0.532 -0.049,0.061 -0.1,0.121 -0.147,0.184 -0.177,0.236 -0.345,0.481 -0.497,0.742 -0.003,0.005 -0.007,0.01 -0.01,0.015 -0.001,0.002 -0.001,0.003 -0.002,0.005 L 1.005,375.3 c -1.34,2.32 -1.34,5.179 0,7.5 l 28.306,49.034 c 0.009,0.016 0.021,0.03 0.031,0.046 0.158,0.269 0.33,0.531 0.522,0.781 l 0.002,0.002 c 0.182,0.236 0.382,0.459 0.594,0.674 0.044,0.045 0.089,0.088 0.134,0.131 0.178,0.172 0.366,0.336 0.563,0.492 0.047,0.038 0.093,0.077 0.141,0.113 0.241,0.181 0.49,0.353 0.758,0.508 0.265,0.153 0.536,0.281 0.81,0.398 0.021,0.009 0.041,0.021 0.062,0.03 0.931,0.388 1.906,0.577 2.872,0.577 0.015,0 0.03,-0.003 0.045,-0.003 h 393.347 c 2.68,0 5.155,-1.43 6.495,-3.75 l 28.309,-49.031 c 0.01,-0.018 0.017,-0.038 0.028,-0.056 0.151,-0.267 0.289,-0.541 0.407,-0.827 0.005,-0.013 0.009,-0.027 0.015,-0.04 0.106,-0.26 0.194,-0.528 0.271,-0.802 0.021,-0.073 0.038,-0.146 0.057,-0.22 0.055,-0.221 0.099,-0.445 0.133,-0.673 0.012,-0.078 0.026,-0.155 0.036,-0.233 0.033,-0.279 0.054,-0.561 0.056,-0.848 0,-0.014 0.002,-0.028 0.002,-0.042 v -0.009 C 465,378.753 464.978,378.46 464.944,378.17 Z M 35.807,413.084 16.16,379.05 205.032,51.913 361.266,322.52 H 321.97 L 211.527,131.229 c -0.014,-0.024 -0.03,-0.045 -0.044,-0.068 -0.081,-0.137 -0.169,-0.269 -0.259,-0.401 -0.052,-0.076 -0.101,-0.155 -0.156,-0.228 -0.085,-0.116 -0.178,-0.226 -0.27,-0.338 -0.069,-0.083 -0.135,-0.168 -0.207,-0.247 -0.079,-0.088 -0.166,-0.17 -0.25,-0.255 -0.094,-0.094 -0.186,-0.19 -0.284,-0.278 -0.071,-0.064 -0.146,-0.123 -0.22,-0.184 -0.12,-0.1 -0.239,-0.2 -0.364,-0.292 -0.068,-0.05 -0.14,-0.095 -0.21,-0.143 -0.136,-0.093 -0.273,-0.185 -0.415,-0.268 -0.023,-0.014 -0.043,-0.03 -0.067,-0.043 -0.06,-0.035 -0.122,-0.061 -0.183,-0.094 -0.132,-0.071 -0.263,-0.141 -0.399,-0.204 -0.107,-0.05 -0.214,-0.094 -0.322,-0.138 -0.113,-0.046 -0.225,-0.092 -0.34,-0.133 -0.128,-0.046 -0.258,-0.085 -0.387,-0.124 -0.099,-0.029 -0.197,-0.058 -0.296,-0.083 -0.141,-0.035 -0.282,-0.065 -0.423,-0.092 -0.095,-0.018 -0.191,-0.036 -0.287,-0.05 -0.14,-0.021 -0.28,-0.037 -0.421,-0.05 -0.104,-0.01 -0.208,-0.018 -0.313,-0.023 -0.13,-0.007 -0.26,-0.009 -0.389,-0.009 -0.118,0 -0.236,0.002 -0.354,0.008 -0.117,0.006 -0.232,0.015 -0.348,0.026 -0.129,0.012 -0.258,0.027 -0.386,0.046 -0.108,0.016 -0.214,0.035 -0.321,0.056 -0.131,0.025 -0.262,0.053 -0.392,0.085 -0.109,0.027 -0.217,0.059 -0.325,0.091 -0.121,0.036 -0.241,0.073 -0.36,0.115 -0.124,0.044 -0.245,0.093 -0.366,0.143 -0.1,0.041 -0.199,0.082 -0.298,0.128 -0.143,0.066 -0.283,0.14 -0.422,0.216 -0.055,0.03 -0.112,0.054 -0.166,0.085 -0.021,0.012 -0.04,0.027 -0.061,0.039 -0.148,0.087 -0.292,0.183 -0.435,0.281 -0.064,0.044 -0.13,0.086 -0.193,0.132 -0.13,0.095 -0.254,0.198 -0.377,0.302 -0.069,0.058 -0.141,0.114 -0.208,0.174 -0.1,0.091 -0.195,0.189 -0.291,0.286 -0.082,0.082 -0.166,0.163 -0.243,0.248 -0.073,0.081 -0.141,0.167 -0.21,0.252 -0.091,0.11 -0.183,0.219 -0.267,0.334 -0.054,0.074 -0.104,0.153 -0.156,0.229 -0.089,0.132 -0.178,0.263 -0.259,0.4 -0.014,0.023 -0.03,0.044 -0.044,0.068 z M 304.649,322.521 H 162.031 l 71.309,-123.51 z m 120.212,98.063 H 48.797 L 205.032,149.978 224.68,184.01 114.239,375.3 c -0.658,1.141 -1.005,2.437 -1.005,3.753 0,4.143 3.357,7.5 7.5,7.5 h 49.636 c 4.143,0 7.5,-3.96447 7.5,-7.5 0,-3.53553 -3.357,-7.5 -7.5,-7.5 h -36.647 l 19.649,-34.032 h 164.26 c 0.005,0 0.01,10e-4 0.015,10e-4 0.005,0 0.01,-10e-4 0.015,-10e-4 h 52.265 l 19.648,34.032 -219.03134,0 c -4.143,0 -7.5,3.357 -7.5,7.5 0,4.143 3.357,7.5 7.5,7.5 l 232.01334,0 c 0.005,0 0.01,10e-4 0.015,10e-4 0.005,0 0.01,-10e-4 0.015,-10e-4 h 41.922 z M 406.896,371.553 218.022,44.413 H 257.3 l 187.264,327.14 z"
   id="path1"
   sodipodi:nodetypes="ccccccccccsccsccscccccccccccscsscccccscscccscccccccccccccscsssccccccccccsccccccccccccccccscccccscccccccsscsccccccssccscccccscccccccccccccsscccccsssccssssssccccccc"
   inkscape:label="main" />
<path
   d="m 155.20763,141.86439 77.36034,130.28118 77.36034,-130.28118 z"
   id="path6"
   style="stroke-width:1.06974" /></svg>
