<svg viewBox="0 0 24 24" xmlns="http://www.w3.org/2000/svg"><path d="M12 .5C5.37.5 0 5.78 0 12.29c0 5.21 3.44 9.63 8.21 11.19.6.11.82-.25.82-.56 0-.28-.01-1.02-.02-2-3.34.71-4.04-1.58-4.04-1.58-.55-1.36-1.34-1.72-1.34-1.72-1.09-.73.08-.72.08-.72 1.21.08 1.84 1.22 1.84 1.22 1.07 1.8 2.81 1.28 3.5.98.11-.76.42-1.28.76-1.57-2.67-.3-5.47-1.31-5.47-5.83 0-1.29.47-2.34 1.24-3.17-.12-.3-.54-1.52.12-3.16 0 0 1.01-.32 3.3 1.21a11.5 11.5 0 0 1 6 0c2.29-1.53 3.3-1.21 3.3-1.21.66 1.64.24 2.86.12 3.16.77.83 1.24 1.88 1.24 3.17 0 4.53-2.81 5.53-5.49 5.82.43.37.81 1.1.81 2.22 0 1.6-.01 2.89-.01 3.28 0 .31.21.68.83.56C20.56 21.91 24 17.5 24 12.29 24 5.78 18.63.5 12 .5z"/></svg>
