<?xml version="1.0"?>
<svg xmlns="http://www.w3.org/2000/svg" width="34.476727" height="81.704071" viewBox="0 0 34.476727 81.704071">
<g transform="translate(44.502715,-106.67835)">
 <path style="fill:#266792;fill-opacity:1;stroke-width:0.26458332" d="m -26.782176,186.89844 c -0.01181,-0.10554 -0.04157,-0.65768 -0.06615,-1.22698 -0.04185,-0.96944 -0.115999,-1.05894 -1.169161,-1.41111 -1.220812,-0.40824 -1.490914,-0.86109 -0.513591,-0.86109 0.688612,0 1.362535,-0.45944 1.572729,-1.07219 0.169229,-0.49334 -0.464231,-2.10281 -0.827628,-2.10281 -0.492916,0 -1.885156,-1.37366 -1.885156,-1.85999 0,-0.88451 0.466242,-0.80482 1.586061,0.2711 0.606624,0.58285 1.188136,1.05972 1.292249,1.05972 0.104113,0 0.646562,-0.46828 1.205441,-1.04063 1.12947,-1.15668 1.087194,-0.59187 0.417186,-5.57395 -0.539538,-4.01192 0.04677,-6.86161 2.267211,-11.01951 1.937951,-3.62893 1.927759,-4.02427 -0.212741,-8.25137 -1.49637,-2.95506 -1.661771,-3.44523 -1.749631,-5.18511 -0.193277,-3.82745 2.121706,-8.53077 6.79243,-13.80012 l 2.470082,-2.78665 0.373181,-2.29894 c 0.496605,-3.05923 0.477306,-8.84413 -0.03944,-11.82393 -0.502441,-2.8973 -1.630339,-6.35692 -2.884197,-8.84675 -1.016325,-2.01815 -1.053597,-2.13346 -0.689641,-2.13346 0.532704,0 3.562537,4.46025 4.919503,7.24204 2.416252,4.95335 3.550367,10.60672 3.188939,15.89632 -0.307504,4.50039 -0.384575,4.68465 -3.154532,7.54222 -1.345978,1.38855 -2.957555,3.27739 -3.581279,4.19742 -2.673432,3.9435 -3.912507,8.34861 -2.500696,8.89037 1.07451,0.41233 3.313645,-1.86008 7.23356,-7.34106 1.215383,-1.6994 2.307818,-3.08981 2.427635,-3.08981 0.4607529,0 0.3341549,4.28437 -0.189471,6.41209 -0.623597,2.53394 -1.490993,3.89868 -3.807084,5.98999 -2.421602,2.18658 -2.929348,2.9718 -2.929348,4.53014 0,1.07584 0.653486,2.07764 1.602534,2.45671 0.288067,0.11506 0.176127,0.33583 -0.455806,0.89898 -1.231972,1.09787 -2.469645,3.61741 -2.469645,5.02747 0,3.83079 -1.36821,11.40922 -2.765771,15.31942 -1.027997,2.87621 -1.846467,4.20403 -3.116914,5.05661 -1.03139,0.69215 -2.310855,1.20312 -2.340862,0.93486 z m -4.171852,-18.77887 c -0.133751,-0.25466 -0.570685,-1.29646 -0.970963,-2.31511 -0.906699,-2.3074 -0.99685,-2.41921 -2.120531,-2.63002 -0.681016,-0.12776 -1.023728,-0.38935 -1.336125,-1.01986 -0.231093,-0.46642 -0.722818,-1.10273 -1.092722,-1.41403 -0.795962,-0.66986 -0.642734,-1.04547 0.562214,-1.37818 1.290161,-0.35623 2.170585,-0.0936 3.052196,0.91052 0.900827,1.02598 2.065791,4.43801 2.308676,6.7618 0.164414,1.57303 0.03572,1.91971 -0.402745,1.08488 z m -9.422246,-17.02392 c -2.15062,-2.04288 -3.503063,-4.30064 -3.770487,-6.29445 -0.195644,-1.45863 0.362835,-1.45538 1.616643,0.009 1.694863,1.98007 4.854729,7.74349 4.39966,8.02474 -0.13807,0.0853 -1.148687,-0.69753 -2.245816,-1.7397 z m 5.589867,1.17097 c -0.09701,-0.097 -0.178456,-0.66256 -0.180983,-1.25677 -0.0077,-1.81191 -0.736303,-4.66468 -1.720849,-6.73785 -1.167608,-2.45866 -2.676682,-4.58004 -5.217066,-7.3339 -1.968885,-2.13433 -1.978573,-2.15209 -2.279889,-4.17799 -0.948357,-6.3763 0.258675,-13.64746 3.205916,-19.31243 1.452723,-2.79231 4.958149,-7.5088 4.958149,-6.67109 0,0.0942 -0.401761,0.97199 -0.892802,1.95063 -2.336547,4.65667 -3.402258,9.28619 -3.424489,14.8762 -0.01501,3.7742 0.40065,7.55932 0.944287,8.59896 0.152188,0.29104 0.973205,1.27749 1.824482,2.1921 4.19033,4.50208 6.906856,9.79715 6.95186,13.55061 0.02366,1.97355 -0.371283,2.69696 -2.082861,3.81512 -1.034231,0.67566 -1.744139,0.84802 -2.085755,0.50641 z"/>
    <g style="font-size:2.48174286px;line-height:125%;font-family:Montserrat;-inkscape-font-specification:Montserrat;fill:#444;stroke:none;stroke-width:0.09024519px" id="text25806">
      <path d="m -19.555169,186.91571 v 1.46671 h -0.292846 v -1.46671 h -0.526129 v -0.26803 h 1.345104 v 0.26803 z" style="fill:#444;stroke-width:0.09024519px"/>
      <path d="m -18.419733,188.38242 h -0.292846 v -1.73474 h 0.456641 l 0.523648,1.08948 0.523647,-1.08948 h 0.454159 v 1.73474 h -0.292845 v -1.35504 l -0.605546,1.20365 h -0.163795 l -0.603063,-1.20365 z" style="fill:#444;stroke-width:0.09024519px"/>
    </g>
  </g>
</svg>