<svg xmlns="http://www.w3.org/2000/svg" viewBox="-21.74 -34.77 224.54 224.54">
  <defs><style>
      .cls-1 {
        fill: #1c1e21;
      }

      .cls-2 {
        fill: #002cc4;
      }
    </style></defs>
  <path id="path4548" class="cls-2" d="m74.25,140.33c-2.96-2.78-2.53-7.57,1.1-12.27,2.69-3.48,13.93-14.88,22.04-22.36l3.28-3.02-5.22-11.19c-5.85-12.55-5.82-12.79,1.9-13.65l4.25-.47,4.75,7.18c2.61,3.95,5.13,7.18,5.58,7.18s5.14-3.76,10.41-8.35c9.15-7.98,9.72-8.33,12.82-7.91,1.87.26,3.53.1,3.92-.37.92-1.1,3.56.53,3.56,2.2,0,.69-1.32,2.43-2.92,3.87-6.57,5.9-20.58,19.86-20.58,20.5,0,.38,2.82,5.25,6.28,10.83l5.84,9.44c.26.42.21.96-.12,1.32l-1.39,1.07c-1.05,1.16-1.76,2.07-1.9,3.21.25.7-.8,1.04-1.75,1.48-2.41,1.12-4.19-.25-11.55-8.89-3.37-3.96-6.46-7.21-6.87-7.22-.91-.02-10.98,10.99-18.77,20.52-6.87,8.4-12.92,8.57-14.67,6.92h0Z"/>
  <path id="path4550" class="cls-2" d="m66.08,75c-.04-.06-.09-.12-.12-.17-15.34-22.9-26.46-26.93-26.06-27.18,5.83-3.75,16.77-.07,23.53,5.94.08.07.16.16.25.24,1.62,1.38,1.99,1.88,3.93,4.04.35,0,7.83-12.43,7.88-12.51,15.06-23.75,30.81-33.79,39.95-33.77,4.36,0,5.01,1.52,5.01,1.52-14.81,7.73-27.34,21.51-40.28,46.89-3.61,7.27-9.69,19-10.13,19.8-.66,1.2-.77-.59-3.95-4.8Z"/>
  <path class="cls-2" d="m15.95,76.23c4.1-1.01,7.25-2.44,9.48-4.3,2.22-1.86,3.74-4.08,4.57-6.66.83-2.58,1.24-5.45,1.24-8.6v-24.22c0-4.72.56-8.61,1.67-11.66,1.11-3.05,3.01-5.3,5.69-6.75,2.68-1.45,6.37-2.18,11.05-2.18V0c-5.93,0-10.92.65-14.96,1.94-4.04,1.29-7.26,3.27-9.69,5.93s-4.17,6.03-5.24,10.11c-1.07,4.08-1.6,8.9-1.6,14.47v19.38c0,6.62-1.34,11.34-4.03,14.17-2.68,2.83-7.4,4.24-14.14,4.24v14.53c6.74,0,11.45,1.41,14.14,4.24,2.68,2.83,4.03,7.55,4.03,14.17v19.37c0,5.57.53,10.39,1.6,14.47,1.07,4.08,2.81,7.45,5.24,10.11s5.65,4.64,9.69,5.93c4.04,1.29,9.02,1.94,14.96,1.94v-11.87c-4.68,0-8.37-.74-11.05-2.21-2.68-1.47-4.58-3.72-5.69-6.75s-1.67-6.9-1.67-11.63v-24.22c0-3.15-.41-6.01-1.24-8.6-.83-2.58-2.35-4.8-4.57-6.66-2.22-1.86-5.38-3.29-9.48-4.3-.52-.13-1.11-.22-1.67-.33v-1.87c.56-.11,1.15-.21,1.67-.33Z"/>
  <path class="cls-2" d="m165.11,76.23c-4.1-1.01-7.25-2.44-9.48-4.3-2.22-1.86-3.74-4.08-4.57-6.66-.83-2.58-1.24-5.45-1.24-8.6v-24.22c0-4.72-.56-8.61-1.67-11.66-1.11-3.05-3.01-5.3-5.69-6.75-2.68-1.45-6.37-2.18-11.05-2.18V0c5.93,0,10.92.65,14.96,1.94,4.04,1.29,7.26,3.27,9.69,5.93,2.42,2.66,4.17,6.03,5.24,10.11,1.07,4.08,1.6,8.9,1.6,14.47v19.38c0,6.62,1.34,11.34,4.03,14.17,2.68,2.83,7.4,4.24,14.14,4.24v7.02s0,.48,0,.48v7.02c-6.74,0-11.45,1.41-14.14,4.24-2.68,2.83-4.03,7.55-4.03,14.17v19.37c0,5.57-.53,10.39-1.6,14.47-1.07,4.08-2.81,7.45-5.24,10.11-2.42,2.66-5.65,4.64-9.69,5.93-4.04,1.29-9.02,1.94-14.96,1.94v-11.87c4.68,0,8.37-.74,11.05-2.21,2.68-1.47,4.58-3.72,5.69-6.75s1.67-6.9,1.67-11.63v-24.22c0-3.15.41-6.01,1.24-8.6.83-2.58,2.35-4.8,4.57-6.66,2.22-1.86,5.38-3.29,9.48-4.3.52-.13,1.11-.22,1.67-.33v-1.87c-.56-.11-1.15-.21-1.67-.33Z"/>
</svg>
