<svg version="1.1" id="Layer_1" xmlns="http://www.w3.org/2000/svg" xmlns:xlink="http://www.w3.org/1999/xlink" x="0px" y="0px" viewBox="42.18 28.08 310 310" xml:space="preserve">
	<metadata>
        <license>
            Licensed to the Apache Software Foundation (ASF) under one or more
            contributor license agreements.  See the NOTICE file distributed with
            this work for additional information regarding copyright ownership.
            The ASF licenses this file to You under the Apache License, Version 2.0
            (the "License"); you may not use this file except in compliance with
            the License.  You may obtain a copy of the License at

            http://www.apache.org/licenses/LICENSE-2.0

            Unless required by applicable law or agreed to in writing, software
            distributed under the License is distributed on an "AS IS" BASIS,
            WITHOUT WARRANTIES OR CONDITIONS OF ANY KIND, either express or implied.
            See the License for the specific language governing permissions and
            limitations under the License.
        </license>
    </metadata>
	<path fill="#000000" opacity="1.000000" stroke="none"
	d="
M181.151978,53.781082 
	C203.951431,74.937538 197.919922,107.297455 169.306000,118.483780 
	C166.380157,119.627609 166.161301,121.199829 165.795151,123.976509 
	C164.538193,133.509109 166.526199,139.972656 177.372696,142.146606 
	C183.000168,143.274521 187.617752,147.658844 191.630585,151.932083 
	C193.681854,154.116486 195.140793,153.855392 197.620239,152.734299 
	C205.642944,149.106796 209.944046,145.046921 209.167953,134.360641 
	C207.559280,112.209785 226.628113,95.488342 249.396698,96.702812 
	C269.714966,97.786575 285.525513,116.775970 283.482910,137.685333 
	C281.996796,152.897964 273.923950,163.532410 259.939423,169.033096 
	C246.362839,174.373322 233.381027,172.274490 222.058624,162.782074 
	C219.459305,160.602859 217.650711,160.435135 214.619934,161.958679 
	C206.907944,165.835373 200.798004,169.493622 204.909729,180.261597 
	C206.940140,185.578979 205.584351,192.157501 203.718475,197.961899 
	C202.797989,200.825455 203.418884,202.795929 206.199631,204.077652 
	C207.252090,204.562775 208.268234,205.177475 209.196823,205.872269 
	C214.886597,210.129425 219.319839,210.528015 225.976395,205.594101 
	C238.240753,196.503601 252.304276,196.933304 265.479645,204.643204 
	C278.211700,212.093704 283.610687,223.683716 283.650696,238.451263 
	C283.701263,257.125244 265.755432,276.912506 241.660690,274.161041 
	C220.197617,271.710114 205.644287,251.661194 209.396255,229.898605 
	C209.891754,227.024536 209.366577,225.022812 206.720688,223.690323 
	C206.131409,223.393555 205.648071,222.891556 205.068375,222.569748 
	C201.866257,220.792038 198.825699,218.270355 195.390930,217.484436 
	C191.492874,216.592453 190.083008,221.284027 187.280853,223.146698 
	C181.837219,226.765244 176.397675,230.260071 169.931702,231.693283 
	C166.990768,232.345123 165.646317,233.963623 165.946533,236.961792 
	C165.995987,237.455765 165.990845,237.968048 165.921295,238.459183 
	C164.774704,246.556030 166.621918,251.627945 175.435303,255.488861 
	C190.972092,262.295105 198.134705,281.145966 193.694824,297.749908 
	C189.237869,314.417725 173.582489,326.246277 156.710327,325.693817 
	C138.961105,325.112640 124.094322,312.884918 120.605774,295.998352 
	C116.790016,277.527893 126.408157,259.520203 144.028976,253.053040 
	C148.018250,251.588898 149.118988,249.524170 148.848114,245.725464 
	C148.576263,241.913239 149.611664,237.694321 148.296280,234.353699 
	C146.832382,230.635895 141.751389,231.268982 138.376572,229.704666 
	C119.435326,220.924835 108.824692,203.862869 109.423431,184.516739 
	C110.098045,162.719193 122.981277,145.986526 143.092850,139.804611 
	C147.632614,138.409149 148.735168,136.362946 149.000519,131.822281 
	C149.457733,123.998184 147.874985,119.487144 139.642303,115.651970 
	C120.698776,106.827156 114.281883,82.840286 124.461884,64.766342 
	C134.869827,46.287731 157.974289,39.920647 176.305161,50.506489 
	C177.886749,51.419842 179.352982,52.532948 181.151978,53.781082 
M137.788849,199.640915 
	C138.427658,200.406479 139.025970,201.210541 139.711487,201.931702 
	C147.420395,210.041504 158.287796,211.884811 168.442352,206.822586 
	C177.335846,202.389008 183.023743,191.747360 181.456970,182.473114 
	C179.553940,171.208237 171.287750,162.775497 160.401566,161.467331 
	C150.793350,160.312729 142.901932,164.010117 137.568314,171.858459 
	C131.607330,180.629944 131.769974,189.940521 137.788849,199.640915 
M148.069046,274.495789 
	C141.108704,280.051666 139.046890,288.384796 142.806366,295.765717 
	C146.022125,302.079163 153.810822,305.825867 160.366394,304.222351 
	C167.067001,302.583313 171.802109,298.606812 173.334137,291.849030 
	C174.841339,285.200562 173.024109,279.189606 167.335709,275.031677 
	C161.440170,270.722351 155.117569,270.265350 148.069046,274.495789 
M261.539917,242.852814 
	C264.564301,233.330902 260.540527,224.449570 251.774399,221.298294 
	C243.544952,218.339935 234.542648,222.296539 231.117401,230.377213 
	C227.775620,238.261017 231.403534,247.963928 239.027420,251.532684 
	C247.684387,255.585052 256.550537,252.399887 261.539917,242.852814 
M172.391479,76.319344 
	C167.608368,67.334244 158.876419,64.078957 150.301407,68.084122 
	C142.458755,71.747223 138.881699,81.008102 142.165131,89.148682 
	C145.338928,97.017456 154.729477,101.282303 162.728561,98.487862 
	C171.561295,95.402199 175.614853,86.652832 172.391479,76.319344 
M231.117371,127.908592 
	C228.887939,134.618103 229.579803,140.831802 234.815018,145.897491 
	C239.161530,150.103241 244.476654,151.751892 250.449203,150.098358 
	C257.880035,148.041107 262.803009,141.353943 262.692474,133.775757 
	C262.593323,126.980782 257.445557,120.186684 251.105469,118.483116 
	C242.915710,116.282547 236.029541,119.315331 231.117371,127.908592 
z"/>
</svg>
