<svg xmlns="http://www.w3.org/2000/svg" fill="none" viewBox="-0.5 -0.5 48 48" id="Kafka-Icon--Streamline-Svg-Logos.svg" height="48" width="48"><desc>Kafka Icon Streamline Icon: https://streamlinehq.com</desc><path fill="#1A1919" d="M19.03167083333333 4.583905104166666c-0.50730625 -0.5098031249999999 -1.2150479166666666 -0.8246345833333334 -2.00190625 -0.8246345833333334 -0.783871875 0 -1.4861302083333332 0.3148314583333333 -1.9874635416666666 0.8246345833333334h-0.014442708333333332C14.522020833333332 5.091226041666666 14.20721875 5.799457291666667 14.20721875 6.583329166666666c0 0.7868093749999999 0.3148020833333333 1.4891166666666666 0.8206395833333333 1.9934364583333333l0.014442708333333332 0.01145625c0.5013333333333333 0.50730625 1.2035916666666666 0.819121875 1.9874635416666666 0.819121875 0.7868583333333333 0 1.4946 -0.311815625 2.00190625 -0.819121875l0.007441666666666667 -0.01145625c0.508334375 -0.5043197916666666 0.8201499999999999 -1.2066270833333332 0.8201499999999999 -1.9934364583333333 0 -0.783871875 -0.311815625 -1.4921031249999999 -0.8201499999999999 -1.9994240624999997h-0.007441666666666667Zm-2.00190625 38.656829270833335c0.7868583333333333 0 1.4946 -0.32028541666666666 2.00190625 -0.8216677083333332l0.007441666666666667 -0.014932291666666667c0.508334375 -0.5003052083333334 0.8201499999999999 -1.2085854166666665 0.8201499999999999 -1.9869739583333335 0 -0.7868093749999999 -0.311815625 -1.4921031249999999 -0.8201499999999999 -2.00190625h-0.007441666666666667c-0.50730625 -0.5157270833333333 -1.2150479166666666 -0.8275916666666666 -2.00190625 -0.8275916666666666 -0.783871875 0 -1.4861302083333332 0.31186458333333333 -1.9874635416666666 0.8275916666666666h-0.014442708333333332c-0.5058374999999999 0.5098031249999999 -0.8206395833333333 1.215096875 -0.8206395833333333 2.00190625 0 0.7783885416666667 0.3148020833333333 1.48666875 0.8206395833333333 1.9869739583333335l0.014442708333333332 0.014932291666666667c0.5013333333333333 0.5013822916666667 1.2035916666666666 0.8216677083333332 1.9874635416666666 0.8216677083333332ZM32.416291666666666 34.68502083333333c0.6998104166666667 -0.18354479166666668 1.3334291666666664 -0.6326395833333334 1.71990625 -1.3115447916666667l0.052238541666666666 -0.09899374999999999c0.34363854166666663 -0.6440958333333333 0.4063052083333333 -1.3871364583333332 0.222809375 -2.0456749999999997 -0.18501354166666667 -0.7052447916666665 -0.639640625 -1.328925 -1.317028125 -1.7193677083333332l-0.03931354166666667 -0.026388541666666668c-0.6600072916666667 -0.36155729166666667 -1.4120072916666666 -0.44013541666666667 -2.1028583333333333 -0.253653125 -0.7022583333333332 0.17507499999999998 -1.3329395833333333 0.6440958333333333 -1.717409375 1.3175177083333334 -0.38941458333333334 0.6670083333333333 -0.4709791666666666 1.4364375 -0.284496875 2.14466875 0.19250416666666664 0.696334375 0.6426270833333333 1.3259875 1.3155593749999999 1.7194166666666666h0.004455208333333334c0.67445 0.38740729166666665 1.4383958333333333 0.45756458333333333 2.1461375 0.2740197916666666ZM19.927902083333333 20.606072916666665c-0.7420614583333334 -0.740103125 -1.7646541666666666 -1.203640625 -2.8981375 -1.203640625 -1.1290281249999998 0 -2.1491239583333335 0.4635375 -2.8897166666666667 1.203640625 -0.7370677083333333 0.7376062499999999 -1.1916947916666667 1.7577020833333332 -1.1916947916666667 2.888198958333333 0 1.1334833333333332 0.4546270833333333 2.1566145833333334 1.1916947916666667 2.9026416666666663 0.7405927083333332 0.7341302083333333 1.7606885416666664 1.19468125 2.8897166666666667 1.19468125 1.1334833333333332 0 2.1560760416666667 -0.46055104166666666 2.8981375 -1.19468125 0.7385854166666667 -0.7460270833333333 1.1932124999999998 -1.7691583333333332 1.1932124999999998 -2.9026416666666663 0 -1.130496875 -0.4546270833333333 -2.150592708333333 -1.1932124999999998 -2.888198958333333Zm-1.6293333333333333 -4.813534375c1.6422583333333334 0.2705927083333333 3.1199677083333333 1.0574020833333333 4.247478125000001 2.1939208333333333h0.008959375c0.179040625 0.180509375 0.354115625 0.376 0.5157760416666667 0.5739385416666666l2.819559375 -1.631340625c-0.37898645833333333 -1.1454291666666665 -0.396415625 -2.3430968749999996 -0.09199270833333334 -3.4651729166666665 0.4023395833333333 -1.5040489583333332 1.3771979166666668 -2.8504031249999997 2.8384572916666664 -3.695423958333333l0.04822395833333333 -0.028836458333333332c1.4453479166666665 -0.8191708333333333 3.088683333333333 -0.9882729166666667 4.572316666666667 -0.5859333333333333 1.5020416666666667 0.4018989583333333 2.857355208333333 1.3812125 3.7009072916666668 2.841492708333333v0.0029864583333333336c0.8395375 1.451271875 1.0101572916666666 3.1179604166666666 0.6092864583333333 4.616036458333333 -0.3994020833333333 1.5030208333333333 -1.378715625 2.8583833333333333 -2.8385062499999996 3.6974312499999997l-0.384959375 0.227803125h-0.03926458333333333c-1.35036875 0.6435572916666666 -2.8355197916666666 0.743040625 -4.199254166666666 0.38446979166666667 -1.12006875 -0.29747083333333335 -2.1476552083333336 -0.9211510416666666 -2.95189375 -1.8099406249999999l-2.8151041666666665 1.6263958333333333c0.32332083333333334 0.8564770833333334 0.5028510416666666 1.780565625 0.5028510416666666 2.75390625 0 0.9703541666666666 -0.17953020833333333 1.9058989583333332 -0.5028510416666666 2.768348958333333l2.8151041666666665 1.6204229166666666c0.8042385416666666 -0.9002458333333333 1.831825 -1.5124697916666667 2.95189375 -1.8099406249999999 1.5020416666666667 -0.410809375 3.1677020833333334 -0.235734375 4.623478125 0.6122729166666666l0.09302083333333333 0.043768749999999995v0.005972916666666667c1.4065729166666667 0.8505041666666667 2.3505385416666664 2.168021875 2.7454854166666665 3.6541520833333334 0.4008708333333333 1.4891166666666666 0.23025104166666666 3.156294791666667 -0.6092864583333333 4.610602083333333l-0.05072083333333333 0.10193125 -0.005972916666666667 -0.008959375c-0.8435520833333333 1.4021177083333334 -2.1725260416666665 2.35205625 -3.6397583333333334 2.753955208333333 -1.5055177083333333 0.39636666666666664 -3.170688541666667 0.22726458333333333 -4.624995833333333 -0.608796875v-0.011945833333333334c-1.461259375 -0.8450208333333333 -2.436117708333333 -2.1943614583333333 -2.8384572916666664 -3.694934375 -0.30442291666666665 -1.1190406249999998 -0.28699375 -2.3171979166666663 0.09199270833333334 -3.4621375l-2.819559375 -1.6263958333333333c-0.16166041666666667 0.19842812499999998 -0.3367354166666666 0.384959375 -0.5157760416666667 0.5655177083333334l-0.008959375 0.008420833333333332c-1.1275104166666665 1.1310354166666667 -2.6052197916666664 1.9178447916666665 -4.247478125000001 2.1799677083333333v3.258275c1.1703 0.24469375000000002 2.2192322916666662 0.830578125 3.0413895833333333 1.6522458333333332l0.0039656249999999995 0.008959375c1.1016604166666666 1.0956875 1.7835520833333331 2.6226 1.7835520833333331 4.301185416666666 0 1.6731510416666666 -0.6818916666666667 3.1906145833333333 -1.7835520833333331 4.292275l-0.0039656249999999995 0.017429166666666666C20.230807291666665 45.828525 18.70839895833333 46.510416666666664 17.029764583333332 46.510416666666664c-1.669675 0 -3.194090625 -0.6818916666666667 -4.300255208333334 -1.7835520833333331h-0.0039656249999999995v-0.017429166666666666c-1.1031291666666667 -1.1016604166666666 -1.7865385416666666 -2.6191239583333332 -1.7865385416666666 -4.292275 0 -1.6785854166666665 0.683409375 -3.2054979166666664 1.7865385416666666 -4.301185416666666v-0.008959375h0.0039656249999999995c0.8206885416666666 -0.8216677083333332 1.8711385416666666 -1.4075520833333333 3.038452083333333 -1.6522458333333332v-3.258275c-1.643825 -0.26212291666666665 -3.117030208333333 -1.0489322916666666 -4.243071875 -2.1799677083333333l-0.011896875 -0.008420833333333332c-1.4075520833333333 -1.413525 -2.287382291666667 -3.35726875 -2.287382291666667 -5.513834375 0 -2.150592708333333 0.8798302083333333 -4.094336458333333 2.287382291666667 -5.5078125h0.011896875c1.1260416666666666 -1.13651875 2.599246875 -1.923328125 4.243071875 -2.1939208333333333v-3.2437833333333335c-1.1673135416666667 -0.25370208333333333 -2.2177635416666663 -0.839096875 -3.038452083333333 -1.6552812499999998h-0.0039656249999999995v-0.008910416666666667c-1.1031291666666667 -1.10714375 -1.7865385416666666 -2.6226489583333334 -1.7865385416666666 -4.301234375 0 -1.6701645833333332 0.683409375 -3.2000684375 1.7865385416666666 -4.3017337499999995l0.0039656249999999995 -0.0054735416666666665C13.835673958333333 1.1714749999999998 15.360089583333332 0.4895833333333333 17.029764583333332 0.4895833333333333c1.678634375 0 3.201042708333333 0.6818916666666667 4.31019375 1.7865385416666666v0.0054735416666666665h0.0039656249999999995c1.1016604166666666 1.1016653125 1.7835520833333331 2.6315691666666665 1.7835520833333331 4.3017337499999995 0 1.6785854166666665 -0.6818916666666667 3.194090625 -1.7835520833333331 4.301234375l-0.0039656249999999995 0.008910416666666667c-0.8221572916666666 0.816184375 -1.8710895833333332 1.4015791666666666 -3.0413895833333333 1.6552812499999998v3.2437833333333335ZM34.13619791666666 13.629999999999999l-0.023402083333333334 -0.034809375c-0.38941458333333334 -0.6560416666666666 -1.0101083333333334 -1.0931906249999999 -1.6965041666666665 -1.2827083333333333 -0.7077416666666666 -0.18653124999999998 -1.4716874999999998 -0.10741458333333334 -2.150592708333333 0.28004166666666663h0.004455208333333334c-0.6773874999999999 0.3844208333333333 -1.130496875 1.0141229166666668 -1.3200145833333334 1.7193677083333332 -0.18648229166666666 0.6993208333333333 -0.10491770833333333 1.4717364583333332 0.284496875 2.14466875l0.012924999999999999 0.017869791666666666c0.39044270833333333 0.664021875 1.0111364583333333 1.109640625 1.704484375 1.2901989583333333 0.6968239583333333 0.19544166666666665 1.4732052083333333 0.11387708333333332 2.142171875 -0.276565625l0.036278125 -0.01738020833333333c0.6585385416666666 -0.39342916666666666 1.0972052083333332 -1.0141229166666668 1.28075 -1.6960145833333333 0.18648229166666666 -0.7023072916666667 0.11240833333333333 -1.4717364583333332 -0.2750479166666666 -2.14466875Z" stroke-width="1"></path></svg>
