<svg xmlns="http://www.w3.org/2000/svg" width="280" height="280" viewBox="0 0 280 280"
     version="1.1">
  <path
    d="M29.738 49.487C19.6868 50.9758 11.4815 58.3482 8.9621 68.1539C8.203 71.1085 8.2188 69.936 8.2159 123.55C8.2139 167.7304 8.2519 175.1103 8.4889 176.5716C9.2716 181.3978 11.3582 185.8818 14.4542 189.3917C17.9188 193.3194 22.1189 195.8697 27.482 197.302L29.362 197.8042L59.771 197.8579L90.18 197.9117V205.6159V213.32H77.4157C65.1627 213.32 64.6037 213.335 63.4567 213.6969C61.1611 214.4215 58.8825 216.5327 57.9882 218.7641C57.6385 219.6362 57.5699 220.1752 57.5663 222.0718C57.562 224.3127 57.5697 224.353 58.2634 225.757C59.0605 227.3696 60.5446 228.9706 61.9531 229.7373C64.0237 230.8642 61.9386 230.804 98.8774 230.804C128.918 230.804 132.8323 230.7711 133.9849 230.509C137.0273 229.817 139.7953 226.9402 140.3734 223.8694C141.1511 219.7381 139.2719 215.9755 135.498 214.1072L134.0979 213.414L120.928 213.32L107.758 213.226V205.612V197.998L138.12 197.8974C166.5403 197.8034 168.5722 197.7752 169.892 197.4577C177.0911 195.7249 182.8837 191.4539 186.4977 185.214C187.5809 183.3436 188.7191 180.3489 189.2838 177.882L189.7143 176.002L189.7788 125.242C189.8461 72.3563 189.8349 71.4802 189.0539 68.4199C187.1481 60.9522 182.4549 55.1485 175.626 51.8141C172.9927 50.5284 170.7623 49.8416 168.012 49.4701C165.1608 49.0849 32.3431 49.1011 29.738 49.487M32.1551 66.8686C29.1029 67.3153 26.485 69.9025 25.8855 73.0645C25.63 74.4117 25.6259 172.552 25.8812 174.1117C25.9818 174.7262 26.2931 175.6816 26.5728 176.2344C27.1724 177.4197 28.6784 178.9871 29.738 179.5289C31.5654 180.4632 27.8362 180.4153 99.0288 180.4177C172.8964 180.4202 166.6046 180.5294 168.6612 179.21C170.7335 177.8805 171.8433 176.0486 172.1582 173.4377C172.2824 172.4071 172.3279 154.8426 172.2907 122.422C172.2405 78.9485 172.1995 72.8872 171.9508 72.226C170.8209 69.2235 168.6305 67.332 165.756 66.8765C164.3206 66.649 33.7072 66.6413 32.1551 66.8686M211.44 74.1254C209.2855 74.7018 206.9214 76.6812 205.9167 78.75C204.8341 80.9793 204.8209 84.1495 205.8854 86.3252C206.493 87.5672 207.9304 89.1849 209.1359 89.9834C209.6188 90.3031 210.5553 90.7322 211.2168 90.9365C212.3774 91.295 213.0216 91.308 229.5547 91.3091C239.5223 91.3097 247.1478 91.3851 247.7843 91.4894C250.9775 92.0124 253.5291 94.4784 254.0996 97.5936C254.2121 98.207 254.304 100.467 254.304 102.6156V106.5223L233.201 106.576L212.098 106.63L211.0097 107.0413C205.8808 108.9798 203.6215 114.6525 206.0609 119.4666C207.1085 121.5337 209.2818 123.2548 211.6128 123.8634C212.7449 124.1589 214.6112 124.1873 233.577 124.1971L254.304 124.208V131.822V139.436H233.6496C220.4813 139.436 212.6283 139.5052 211.9826 139.6266C210.3983 139.9248 209.0216 140.6992 207.6657 142.0543C206.2298 143.4897 205.5312 144.8198 205.2005 146.749C204.9076 148.4566 205.1787 150.4928 205.8934 151.9538C206.6941 153.5903 208.404 155.2887 210.0894 156.1218L211.5143 156.826L232.9132 156.8769L254.3119 156.9277L254.2609 182.0689L254.21 207.21L253.7804 208.2728C252.947 210.334 251.318 211.963 249.2568 212.7964L248.194 213.226L221.686 213.32C196.1003 213.4108 195.1485 213.4266 194.332 213.7742C192.0514 214.745 190.6023 216.1154 189.4998 218.3435C188.9138 219.5281 188.8165 219.9248 188.7364 221.4568C188.5839 224.3708 189.3946 226.4392 191.4385 228.3512C192.7598 229.5873 194.1423 230.334 195.6266 230.6134C196.2806 230.7365 205.771 230.8029 222.4166 230.8006C243.7674 230.7978 248.5168 230.751 250.074 230.528C261.2141 228.9332 269.6811 220.5828 271.5182 209.3788C271.9149 206.9605 271.9111 97.6455 271.5145 95.2259C270.5955 89.6203 268.1212 84.7976 264.2385 81.0432C260.2578 77.1941 255.6924 74.9229 250.262 74.0902C247.6875 73.6954 212.9293 73.727 211.44 74.1254M222.9409 172.6103C222.3902 172.7436 221.2058 173.216 220.3089 173.6605C218.1931 174.7084 215.83 177.0055 214.7665 179.0476C212.8179 182.789 212.8209 187.4941 214.7744 191.2026C215.8482 193.2412 218.2183 195.5467 220.276 196.554C221.1549 196.9843 222.3782 197.4641 222.9945 197.6201C224.4541 197.9899 227.6426 197.9862 229.2846 197.6126C232.486 196.8845 235.707 194.3683 237.5101 191.1869C239.4227 187.8127 239.4227 182.4273 237.5101 179.0531C235.7326 175.9166 232.7327 173.5178 229.5799 172.7114C227.862 172.2721 224.5472 172.2215 222.9409 172.6103"
    stroke="none" fill-rule="evenodd" stroke-width="0.188"></path>
</svg>