<svg xmlns="http://www.w3.org/2000/svg" fill="none" viewBox="-0.5 -0.5 48 48" id="Oracle--Streamline-Svg-Logos.svg" height="48" width="48"><desc>Oracle Streamline Icon: https://streamlinehq.com</desc><path fill="#EA1B22" d="M20.357119791666666 24.400980208333333h3.040948958333333l-1.6079385416666665 -2.586958333333333 -2.9511593749999996 4.677332291666666h-1.3431229166666665l3.5895760416666667 -5.618507291666667c0.15607916666666666 -0.22697083333333334 0.4161947916666666 -0.3641520833333333 0.70470625 -0.3641520833333333 0.27901354166666664 0 0.5391291666666667 0.13243229166666667 0.690459375 0.354703125L26.084363541666665 26.491354166666664h-1.3431229166666665l-0.6337166666666666 -1.0452114583333334h-3.0788427083333336l-0.6715614583333332 -1.0451624999999998Zm13.951607291666667 1.0451624999999998v-4.8806562499999995h-1.1397989583333332v5.358342708333333c0 0.14658125 0.05679166666666667 0.28846249999999996 0.165528125 0.39724791666666665 0.10878541666666666 0.10878541666666666 0.25536666666666663 0.17027708333333333 0.4161947916666666 0.17027708333333333h5.197563541666667l0.6715614583333332 -1.0452114583333334H34.30872708333333ZM15.452767708333331 24.571208333333335c1.106703125 0 2.005284375 -0.8938322916666667 2.005284375 -2.0004864583333335 0 -1.106703125 -0.8985812499999999 -2.0052354166666664 -2.005284375 -2.0052354166666664H10.466606249999998V26.491354166666664h1.139309375v-4.880705208333333h3.771211458333333c0.5296802083333334 0 0.9553239583333333 0.4303927083333333 0.9553239583333333 0.9600729166666667s-0.42564375 0.9600239583333333 -0.9553239583333333 0.9600239583333333l-3.2131354166666664 -0.004699999999999999 3.4022614583333333 2.965308333333333h1.6553302083333332l-2.2889979166666663 -1.9201458333333334h0.5201822916666666ZM3.453021458333333 26.491354166666664C1.8171228124999999 26.491354166666664 0.4895833333333333 25.167129166666665 0.4895833333333333 23.530745833333334c0 -1.636334375 1.3275394791666666 -2.965259375 2.9634381249999997 -2.965259375h3.4443754166666665c1.636334375 0 2.9629093749999997 1.328925 2.9629093749999997 2.965259375 0 1.6363833333333333 -1.326575 2.960608333333333 -2.9629093749999997 2.960608333333333H3.453021458333333Zm3.367755625 -1.0452114583333334c1.05985 0 1.9182364583333331 -0.8559874999999999 1.9182364583333331 -1.9153968749999999 0 -1.0593604166666668 -0.8583864583333334 -1.9200968749999998 -1.9182364583333331 -1.9200968749999998H3.529146770833333c-1.0593751041666666 0 -1.9182413541666665 0.8607364583333333 -1.9182413541666665 1.9200968749999998 0 1.059409375 0.8588662499999999 1.9153968749999999 1.9182413541666665 1.9153968749999999h3.2916303124999997ZM28.463199999999997 26.491354166666664c-1.636334375 0 -2.965259375 -1.324225 -2.965259375 -2.960608333333333 0 -1.636334375 1.328925 -2.965259375 2.965259375 -2.965259375h4.090909375l-0.6668125 1.0451624999999998h-3.3484072916666663c-1.0593604166666668 0 -1.9200968749999998 0.8607364583333333 -1.9200968749999998 1.9200968749999998 0 1.059409375 0.8607364583333333 1.9153968749999999 1.9200968749999998 1.9153968749999999h4.109807291666667L31.977135416666663 26.491354166666664h-3.5139354166666665Zm13.937409375 -1.0452114583333334c-0.8749343749999999 0 -1.6174364583333334 -0.5864229166666667 -1.84445625 -1.395165625h4.87125625l0.6715614583333332 -1.0451624999999998H40.556153124999994c0.22701979166666666 -0.8039937500000001 0.969521875 -1.395165625 1.84445625 -1.395165625h3.3436583333333334l0.6763104166666666 -1.0451624999999998H42.32496875c-1.6363833333333333 0 -2.965308333333333 1.328925 -2.965308333333333 2.965259375 0 1.6363833333333333 1.328925 2.960608333333333 2.965308333333333 2.960608333333333h3.513886458333333L46.510416666666664 25.44614270833333h-4.109807291666667Z" stroke-width="1"></path></svg>
