<svg xmlns="http://www.w3.org/2000/svg" fill="none" viewBox="-0.5 -0.5 48 48" id="Postgresql--Streamline-Svg-Logos.svg" height="48" width="48"><desc>Postgresql Streamline Icon: https://streamlinehq.com</desc><path fill="#000000" d="M45.700743749999994 28.05699270833333c-0.26829166666666665 -0.8124145833333333 -0.9710885416666667 -1.378421875 -1.8800489583333333 -1.51428125 -0.4285322916666666 -0.06398854166666668 -0.9193885416666666 -0.03666979166666666 -1.5001322916666666 0.08308229166666665 -1.0123114583333332 0.20885625 -1.76338125 0.28831562499999996 -2.3114697916666667 0.30378645833333334 2.0688322916666664 -3.4930791666666665 3.7511385416666667 -7.476573958333333 4.719632291666667 -11.22624375 1.5659812499999999 -6.063048958333333 0.7291364583333333 -8.82513125 -0.24870833333333334 -10.074596875C41.89203020833333 2.3219321875000003 38.11616770833333 0.5453517708333333 33.560741666666665 0.49089541666666664c-2.4298999999999995 -0.029658958333333332 -4.5633083333333335 0.45013760416666665 -5.676033333333334 0.7950784375 -1.0361541666666667 -0.18270270833333332 -2.1503479166666666 -0.28480041666666667 -3.319423958333333 -0.303708125 -2.1910322916666667 -0.034926874999999996 -4.1271875 0.44269593749999997 -5.7815385416666665 1.4244035416666665 -0.916059375 -0.30959781249999996 -2.3858374999999996 -0.7461984374999999 -4.083369791666667 -1.0249035416666668 -3.992552083333333 -0.6554688541666667 -7.210289583333333 -0.14467187499999998 -9.563863541666667 1.5180314583333332C2.286437395833333 4.913017708333333 0.9651645833333333 8.410796875 1.2095596875 13.296055208333334c0.07750104166666666 1.5510979166666667 0.94522875 6.270240625 2.3113473958333333 10.745864583333335 0.7851594791666667 2.572417708333333 1.6224106249999999 4.708714583333333 2.4884835416666666 6.349895833333333 1.22816875 2.327283333333333 2.542308333333333 3.6978229166666665 4.017667708333334 4.189952083333333 0.8270041666666667 0.2755864583333333 2.3294375 0.4684333333333333 3.9097635416666665 -0.84746875 0.20028854166666668 0.24239270833333332 0.4674052083333333 0.4835125 0.8221572916666666 0.7073010416666667 0.45031874999999993 0.28410520833333336 1.0011489583333333 0.5162166666666667 1.5510979166666667 0.653740625 1.9823229166666667 0.4956052083333333 3.8390677083333333 0.37159375 5.423163541666666 -0.32292916666666666 0.009693750000000001 0.28170625 0.017233333333333333 0.5508791666666666 0.023646875 0.783284375 0.010526041666666666 0.37707708333333334 0.02085625 0.7467124999999999 0.034711458333333334 1.0924072916666667 0.093853125 2.3376625 0.2528697916666666 4.1552895833333325 0.72409375 5.426982291666666 0.025849999999999998 0.070059375 0.060659374999999995 0.17659270833333335 0.09742708333333333 0.28953958333333335 0.235 0.7198343749999999 0.6282333333333333 1.9247479166666666 1.6282072916666666 2.868517708333333 1.0357625000000001 0.9775020833333332 2.2884104166666663 1.277371875 3.4356510416666666 1.2772739583333335 0.5754072916666666 0 1.1244260416666667 -0.07544479166666666 1.6058822916666666 -0.17864895833333333 1.716528125 -0.3678239583333333 3.665902083333333 -0.9282989583333332 5.076048958333333 -2.936129166666667 1.3331354166666665 -1.8982125 1.9812947916666666 -4.757183333333333 2.0985989583333335 -9.262084374999999 0.015177083333333332 -0.12729166666666666 0.029228125 -0.24890416666666665 0.042740625 -0.3648864583333333 0.00910625 -0.07818645833333333 0.018408333333333332 -0.158184375 0.027808333333333334 -0.23798645833333332l0.314165625 0.027612499999999998 0.08087916666666667 0.005483333333333333c1.7483020833333334 0.07965520833333334 3.885920833333333 -0.29110625 5.198738541666667 -0.9008822916666667 1.037378125 -0.48145625000000003 4.361551041666666 -2.2363677083333333 3.578903125 -4.6059020833333335Z" stroke-width="1"></path><path fill="#336791" d="M42.71144583333333 28.5178375c-5.198102083333333 1.0722364583333335 -5.555448958333334 -0.68766875 -5.555448958333334 -0.68766875C42.64437291666666 19.686341666666667 44.93865833333333 9.348936458333334 42.958734375 6.8189166666666665 37.557259375 -0.08247080208333332 28.207098958333333 3.1814446875 28.05106875 3.266181770833333l-0.05023125 0.008993645833333333c-1.0269989583333334 -0.21318416666666665 -2.176295833333333 -0.3401869791666666 -3.4680124999999995 -0.3612684375 -2.35205625 -0.03854489583333333 -4.136195833333333 0.6166155208333334 -5.490040625 1.643271770833333 0 0 -16.67980552083333 -6.871429374999999 -15.9040509375 8.642134791666667 0.16502875 3.3003791666666666 4.730388437499999 24.972226041666666 10.175730104166666 18.426301041666665 1.9903031249999998 -2.393572916666667 3.9133375 -4.417461458333333 3.9133375 -4.417461458333333 0.955128125 0.6345 2.09855 0.9581635416666666 3.2972947916666664 0.8418875l0.09306979166666667 -0.07906770833333333c-0.028934375 0.29722604166666666 -0.015715624999999997 0.5878916666666667 0.03730625 0.9320197916666666 -1.402803125 1.5673031249999998 -0.9905739583333333 1.8424979166666666 -3.794858333333333 2.4197656249999997 -2.8375270833333333 0.5847583333333333 -1.1705937499999999 1.62590625 -0.08225 1.8979677083333333 1.3194270833333333 0.32997916666666666 4.3718812499999995 0.797384375 6.434397916666667 -2.089884375l-0.08225 0.329440625c0.5496552083333334 0.4402333333333333 0.9356427083333333 2.8635729166666666 0.8709197916666666 5.060333333333333 -0.06467395833333332 2.196858333333333 -0.10785520833333333 3.7050687499999997 0.3252302083333333 4.883104166666667 0.43308541666666667 1.1780843749999999 0.8647020833333333 3.8286885416666663 4.551166666666666 3.0387458333333335 3.080409375 -0.6601052083333333 4.676646875 -2.370758333333333 4.898721875 -5.224196875 0.157596875 -2.0286375 0.514209375 -1.7287677083333333 0.5367302083333333 -3.5424291666666665l0.2860635416666667 -0.85863125c0.3298322916666666 -2.749891666666666 0.05238541666666666 -3.6370656249999995 1.95020625 -3.2244447916666665l0.4611875 0.04048854166666666c1.39678125 0.063596875 3.224934375 -0.22462083333333333 4.297905208333334 -0.723359375 2.310392708333333 -1.0721874999999998 3.6806875 -2.862446875 1.4026072916666665 -2.3920552083333333h0.00019583333333333334Z" stroke-width="1"></path><path fill="#ffffff" d="M20.019307291666667 14.675309375c-0.46833541666666667 -0.0652125 -0.8926083333333332 -0.0048468750000000005 -1.1072416666666667 0.157596875 -0.12082916666666665 0.09145416666666666 -0.15813541666666667 0.19735104166666667 -0.16812291666666665 0.2703479166666667 -0.026976041666666666 0.193140625 0.10839375 0.4065989583333333 0.19147604166666665 0.5167552083333333 0.23519583333333333 0.3117666666666667 0.5788833333333333 0.52610625 0.9190947916666666 0.5733510416666666 0.04925208333333333 0.006805208333333332 0.098259375 0.010134375 0.147021875 0.010134375 0.5673291666666667 0 1.0829583333333335 -0.44170208333333333 1.1284406249999999 -0.767715625 0.056840625 -0.40831249999999997 -0.5358979166666666 -0.680471875 -1.11066875 -0.7604697916666666Z" stroke-width="1"></path><path fill="#ffffff" d="M35.537434375000004 14.688185416666666c-0.04465 -0.32004062499999997 -0.6143291666666666 -0.4112989583333333 -1.1547802083333332 -0.33619687499999995 -0.5396677083333333 0.07524895833333334 -1.0630322916666666 0.31881666666666664 -1.0193614583333332 0.6395916666666667 0.035152083333333334 0.2494427083333333 0.4853729166666666 0.6752822916666666 1.0186270833333333 0.675184375 0.044943750000000005 0 0.09042604166666666 -0.0029864583333333336 0.13620208333333333 -0.009399999999999999 0.355878125 -0.04930104166666666 0.6170218749999999 -0.27529270833333336 0.7410333333333333 -0.4055708333333333 0.18897916666666667 -0.19842812499999998 0.2982052083333333 -0.41976875 0.2782791666666667 -0.5636083333333333Z" stroke-width="1"></path><path fill="#ffffff" d="M44.44119270833333 28.396371875c-0.19818333333333332 -0.5993968749999999 -0.8360614583333333 -0.7922927083333333 -1.896009375 -0.5733510416666666 -3.1470416666666665 0.64948125 -4.2740625 0.19955416666666667 -4.6441875 -0.07294791666666665 2.446203125 -3.7265614583333333 4.458488541666666 -8.230923958333333 5.544041666666667 -12.433752083333333 0.5143072916666667 -1.9907927083333332 0.7983635416666667 -3.8396062499999997 0.8215208333333333 -5.346494791666666 0.025654166666666665 -1.6542531249999999 -0.2559541666666667 -2.8695947916666666 -0.837040625 -3.6120479166666666 -2.3425583333333333 -2.9932929166666664 -5.780461458333334 -4.5988471875 -9.942213541666666 -4.642973333333333 -2.860978125 -0.03213625 -5.278246875 0.7001139583333333 -5.746876041666667 0.9059641666666666 -0.9869020833333333 -0.24542812499999997 -2.0627614583333336 -0.39609739583333337 -3.2338447916666664 -0.4153135416666667 -2.1479 -0.034721249999999995 -4.004351041666666 0.47948322916666664 -5.541495833333333 1.5275342708333333 -0.6676447916666666 -0.24842437499999998 -2.39318125 -0.8407565625 -4.503236458333333 -1.1806302083333333 -3.6482281249999997 -0.5874755208333333 -6.547148958333333 -0.14240020833333333 -8.61598125 1.3232360416666666C3.3773367708333333 5.624480208333334 2.23772875 8.750665625 2.4585651041666665 13.167098958333334c0.07429916666666667 1.4859833333333334 0.9208377083333333 6.0569291666666665 2.2569938541666668 10.434489583333333C6.47425 29.363201041666667 8.385926041666666 32.62495208333333 10.397477083333333 33.29577916666666c0.23539166666666667 0.078578125 0.5069635416666667 0.13350937499999999 0.8062458333333333 0.13350937499999999 0.7337874999999999 0 1.6333479166666665 -0.33076249999999996 2.5693822916666664 -1.4560208333333333 1.5547208333333333 -1.8704041666666664 3.0062864583333333 -3.4377072916666664 3.541352083333333 -4.007190625 0.790775 0.4245177083333333 1.6592958333333334 0.6614270833333333 2.5478895833333333 0.6852208333333333 0.0015666666666666667 0.023255208333333333 0.0039656249999999995 0.046510416666666665 0.0060218749999999995 0.06966770833333334 -0.17825729166666665 0.21140208333333332 -0.3244958333333333 0.396709375 -0.44909479166666666 0.55489375 -0.6156020833333333 0.7814239583333333 -0.7437260416666666 0.9441124999999999 -2.7253635416666664 1.3521802083333332 -0.563559375 0.11627604166666666 -2.0608520833333333 0.42481145833333334 -2.0826385416666664 1.4742333333333333 -0.02389166666666667 1.14650625 1.76955 1.6280604166666666 1.9739510416666668 1.6791239583333333 0.7120989583333333 0.17825729166666665 1.3980541666666666 0.2661864583333333 2.052284375 0.2661864583333333 1.5911947916666667 -0.00009791666666666667 2.991305208333333 -0.5229729166666667 4.110345833333334 -1.5347947916666667 -0.034515624999999994 4.08753125 0.13600625 8.115333333333334 0.6267645833333333 9.342571874999999 0.40185 1.0045270833333333 1.3839052083333334 3.459836458333333 4.485758333333333 3.4596406249999996 0.45501874999999997 0 0.9561072916666666 -0.05292395833333333 1.5071822916666666 -0.17101145833333334 3.237173958333333 -0.69413125 4.642865625 -2.1248406249999996 5.18674375 -5.279128125 0.290959375 -1.6857333333333333 0.7904322916666666 -5.7113812500000005 1.0251875 -7.870590625 0.49570312499999997 0.15456145833333332 1.1339239583333334 0.2253552083333333 1.8237958333333333 0.22525729166666666 1.4388854166666667 0 3.0991114583333332 -0.305646875 4.140357291666666 -0.7889635416666666 1.169565625 -0.5431437499999999 3.2803552083333334 -1.8762302083333333 2.89755 -3.0341927083333333ZM36.732115625 13.805075c-0.010721874999999999 0.6374864583333333 -0.09845520833333334 1.2162229166666667 -0.19147604166666665 1.8203197916666667 -0.100021875 0.6496770833333333 -0.20356875 1.3213854166666665 -0.22961458333333332 2.136786458333333 -0.02575208333333333 0.7935656249999999 0.07338854166666667 1.618611458333333 0.16924895833333334 2.4163385416666667 0.19367916666666665 1.6114635416666667 0.3924010416666667 3.2705635416666663 -0.37697916666666664 4.907632291666666 -0.11955624999999999 -0.21238125 -0.23495104166666667 -0.44405208333333335 -0.34079895833333335 -0.7006427083333333 -0.09556666666666667 -0.23176875 -0.3031989583333333 -0.604096875 -0.5905843749999999 -1.1194322916666668 -1.1185020833333335 -2.005773958333333 -3.737675 -6.702885416666667 -2.3969020833333334 -8.619604166666667 0.3993041666666666 -0.570609375 1.4128395833333334 -1.1570812499999998 3.9571062499999994 -0.8413979166666666Zm-3.083885416666667 -10.799376041666665c3.7288135416666663 0.08236260416666666 6.67840625 1.4773128125 8.766821875 4.145889583333333 1.6017697916666667 2.0469479166666664 -0.162003125 11.360732291666665 -5.268014583333333 19.395773958333333 -0.05042708333333333 -0.06408645833333333 -0.101784375 -0.12876041666666665 -0.15490416666666668 -0.19514791666666667 -0.02119895833333333 -0.026535416666666665 -0.04278958333333333 -0.05351145833333333 -0.06457604166666665 -0.08078125 1.319378125 -2.1790864583333334 1.0613677083333333 -4.335015625 0.831753125 -6.2465447916666665 -0.09434270833333333 -0.784459375 -0.18344687499999998 -1.5253947916666666 -0.160828125 -2.2212395833333334 0.0235 -0.7378510416666667 0.121025 -1.3703927083333334 0.21526979166666665 -1.9821270833333335 0.11603124999999999 -0.7539583333333333 0.233971875 -1.5339625 0.2014145833333333 -2.453546875 0.02428333333333333 -0.09639895833333333 0.034074999999999994 -0.21037395833333333 0.021394791666666666 -0.3456458333333333 -0.08308229166666665 -0.8818864583333332 -1.0898124999999999 -3.520838541666666 -3.141901041666667 -5.9096625 -1.1223208333333334 -1.3064041666666666 -2.7592916666666665 -2.7685398958333334 -4.994288541666666 -3.754688020833333 0.9613458333333333 -0.1992359375 2.2760239583333335 -0.38503770833333334 3.7478583333333333 -0.3522796875ZM12.782629166666666 31.149690624999998c-1.031209375 1.2398208333333334 -1.7434062499999998 1.002275 -1.9775739583333332 0.9242354166666666 -1.5259822916666665 -0.5090197916666667 -3.2965114583333333 -3.734101041666667 -4.857498958333333 -8.848386458333334 -1.3507310416666667 -4.425196875 -2.1401303125 -8.875019791666666 -2.202542395833333 -10.122820833333334 -0.19727270833333332 -3.946286458333333 0.7593241666666666 -6.696569791666667 2.8433090625 -8.174523958333333 3.391539583333333 -2.4051858333333334 8.967648958333333 -0.9655905208333333 11.208227083333332 -0.23540635416666664 -0.032263541666666666 0.031724999999999996 -0.06575104166666666 0.061486770833333336 -0.097671875 0.09372583333333333 -3.676623958333333 3.713239895833333 -3.5894291666666667 10.0573096875 -3.580420833333333 10.445059687499999 -0.00029374999999999996 0.14961666666666665 0.012190624999999998 0.36145937499999997 0.029423958333333333 0.6528593749999999 0.06325416666666667 1.0669979166666665 0.18094999999999997 3.05294375 -0.13350937499999999 5.301942708333333 -0.2923302083333333 2.089933333333333 0.35186354166666667 4.1354614583333325 1.7671999999999999 5.612191666666667 0.14653229166666668 0.15279895833333332 0.299478125 0.2963447916666666 0.45746666666666663 0.4314208333333333 -0.6300447916666666 0.6746947916666667 -1.9991645833333334 2.166553125 -3.456409375 3.919702083333333Zm3.9289552083333334 -5.242409375c-1.1407291666666666 -1.1901770833333334 -1.6587572916666666 -2.845703125 -1.4215052083333333 -4.542549999999999 0.33213333333333334 -2.375801041666666 0.20949270833333333 -4.444927083333334 0.14364375 -5.556526041666666 -0.009204166666666666 -0.155540625 -0.01733125 -0.29184062499999996 -0.022227083333333335 -0.3994020833333333 0.5371708333333333 -0.47616875 3.0262614583333334 -1.8099895833333333 4.801294791666667 -1.40324375 0.8101625 0.18560104166666666 1.3036135416666665 0.7371166666666666 1.508846875 1.685978125 1.0621020833333332 4.911940625 0.14060833333333334 6.95923125 -0.5997885416666667 8.604378125 -0.15265208333333333 0.33893854166666665 -0.29678541666666663 0.659321875 -0.4199645833333333 0.99081875l-0.09537083333333334 0.25615c-0.241609375 0.6478166666666666 -0.46637708333333333 1.2501020833333332 -0.6056635416666667 1.8220822916666666 -1.2125510416666667 -0.0037208333333333334 -2.392251041666667 -0.5216510416666666 -3.2892656249999996 -1.4576854166666666Zm0.18613958333333333 6.624454166666666c-0.35406666666666664 -0.08846770833333333 -0.6725406249999999 -0.24214791666666666 -0.859365625 -0.3695375 0.1560302083333333 -0.07348645833333334 0.4338197916666667 -0.17331249999999998 0.9154718749999999 -0.2725020833333333 2.3312 -0.48003645833333336 2.691092708333333 -0.8186322916666666 3.477314583333333 -1.8168927083333333 0.18031354166666666 -0.22878229166666667 0.38461666666666666 -0.4882614583333333 0.667546875 -0.8042874999999999l0.00029374999999999996 -0.0003916666666666667c0.42153124999999997 -0.47186041666666667 0.6142802083333333 -0.3918625 0.9638427083333333 -0.246896875 0.2833708333333333 0.11730416666666667 0.5592510416666667 0.47235 0.6711697916666667 0.8631843749999999 0.05292395833333333 0.18457291666666667 0.11245729166666665 0.5349677083333333 -0.08215208333333333 0.8074697916666667 -1.6423072916666666 2.2994749999999997 -4.035439583333333 2.269953125 -5.754121875 1.8398541666666666Zm12.199829166666667 11.352752083333334c-2.8518229166666664 0.6110489583333333 -3.8615395833333332 -0.8440416666666666 -4.526932291666666 -2.507498958333333 -0.42946249999999997 -1.07395 -0.6404729166666666 -5.916663541666667 -0.4907583333333333 -11.264480208333332 0.0020072916666666668 -0.07123437499999999 -0.008127083333333333 -0.13992291666666665 -0.027759375 -0.20454791666666666 -0.017086458333333332 -0.12469687499999998 -0.043328124999999995 -0.2508625 -0.07970416666666666 -0.377909375 -0.22276041666666666 -0.7780947916666666 -0.7654145833333332 -1.4290447916666664 -1.4164135416666666 -1.6988541666666668 -0.2586958333333333 -0.10716979166666667 -0.7334937499999999 -0.30378645833333334 -1.3040541666666667 -0.157890625 0.121759375 -0.501284375 0.33276979166666665 -1.0672916666666667 0.5614541666666667 -1.6802499999999998l0.09600729166666666 -0.25796145833333334c0.10809999999999999 -0.290665625 0.24356770833333333 -0.5918083333333334 0.3869666666666666 -0.9104781249999999 0.7748635416666666 -1.721423958333333 1.8360354166666666 -4.079061458333333 0.6843395833333332 -9.405385416666666 -0.43146979166666666 -1.9949541666666664 -1.8719708333333331 -2.969078125 -4.05580625 -2.742890625 -1.3092927083333334 0.13546770833333333 -2.5069604166666664 0.6637281249999999 -3.1043499999999997 0.9666333333333332 -0.12846666666666667 0.06506562499999999 -0.24596666666666664 0.12792812499999998 -0.35568229166666665 0.189175 0.16665416666666666 -2.0100822916666665 0.7966989583333333 -5.7665083333333325 3.1532104166666666 -8.143190624999999 1.4836333333333334 -1.4963233333333332 3.4596406249999996 -2.2352906249999998 5.867215625 -2.195507083333333 4.743719791666666 0.0777115625 7.785647916666666 2.512120625 9.502420833333332 4.540758125 1.4792760416666666 1.7481552083333332 2.280332291666667 3.509039583333333 2.600030208333333 4.458684375 -2.4041479166666666 -0.24435104166666666 -4.039258333333334 0.23025104166666666 -4.868220833333333 1.4152385416666666 -1.8032333333333332 2.5776562499999995 0.9865593749999999 7.5808552083333325 2.3273812499999997 9.985296875 0.24581979166666665 0.44072291666666663 0.45810312499999994 0.8215208333333333 0.5248333333333334 0.9833770833333333 0.43661041666666667 1.0581364583333335 1.0018833333333335 1.76455625 1.4146020833333335 2.280332291666667 0.12650833333333333 0.15798854166666665 0.24924687499999998 0.311228125 0.3425614583333333 0.44508020833333334 -0.7281083333333334 0.20998229166666665 -2.036030208333333 0.6949145833333333 -1.9169145833333332 3.11933125 -0.09610520833333333 1.2166145833333333 -0.7797593749999999 6.912133333333332 -1.126971875 8.924467708333333 -0.45844583333333333 2.6584375 -1.43673125 3.6487177083333333 -4.187455208333334 4.238469791666666Zm11.90363125 -13.622264583333333c-0.7445093749999999 0.3456458333333333 -1.9905479166666666 0.6049291666666666 -3.174311458333333 0.6605458333333333 -1.3074322916666667 0.06124687499999999 -1.9729229166666664 -0.14643437499999998 -2.1294916666666666 -0.27416666666666667 -0.07353541666666666 -1.5108052083333334 0.48889791666666665 -1.6686958333333333 1.0840354166666666 -1.8357906249999998 0.09351041666666667 -0.026339583333333333 0.18476875 -0.05189583333333333 0.27279583333333335 -0.08269062499999999 0.054784374999999996 0.04455208333333333 0.114709375 0.08876145833333332 0.18031354166666666 0.13208958333333332 1.0508416666666665 0.6935927083333333 2.925211458333333 0.7684010416666666 5.571164583333333 0.22227083333333333 0.009693750000000001 -0.00205625 0.019436458333333333 -0.003916666666666666 0.029032291666666665 -0.005875 -0.35680833333333334 0.33365104166666665 -0.9675635416666666 0.781521875 -1.8335385416666665 1.1836166666666668Z" stroke-width="1"></path></svg>
