<svg xmlns="http://www.w3.org/2000/svg" xmlns:xlink="http://www.w3.org/1999/xlink" width="500" zoomAndPan="magnify" viewBox="0 0 375 374.999991" height="500" preserveAspectRatio="xMidYMid meet" version="1.0"><path fill="#e620e9" d="M 370.75 269.863281 L 199.101562 31.945312 C 193.699219 24.519531 181.242188 24.519531 175.894531 31.945312 L 4.246094 269.863281 C 3.371094 271.082031 2.707031 272.402344 2.246094 273.828125 C 1.789062 275.253906 1.558594 276.71875 1.558594 278.214844 C 1.558594 278.964844 1.617188 279.707031 1.734375 280.445312 C 1.851562 281.183594 2.027344 281.910156 2.257812 282.621094 C 2.484375 283.332031 2.769531 284.023438 3.109375 284.6875 C 3.445312 285.355469 3.832031 285.992188 4.269531 286.597656 C 4.707031 287.207031 5.191406 287.773438 5.714844 288.304688 C 6.242188 288.835938 6.804688 289.324219 7.410156 289.765625 C 8.011719 290.210938 8.644531 290.605469 9.308594 290.949219 C 9.972656 291.292969 10.65625 291.582031 11.367188 291.820312 L 183.015625 347.988281 L 183.042969 347.988281 C 184.484375 348.457031 185.960938 348.691406 187.476562 348.691406 C 188.992188 348.691406 190.46875 348.457031 191.910156 347.988281 L 191.9375 347.988281 L 363.585938 291.824219 C 364.65625 291.476562 365.671875 291.007812 366.632812 290.417969 C 367.59375 289.832031 368.46875 289.136719 369.265625 288.339844 C 370.058594 287.542969 370.75 286.660156 371.332031 285.699219 C 371.917969 284.738281 372.382812 283.71875 372.726562 282.648438 C 373.078125 281.578125 373.300781 280.484375 373.390625 279.363281 C 373.484375 278.238281 373.441406 277.121094 373.265625 276.011719 C 373.089844 274.898438 372.785156 273.824219 372.355469 272.785156 C 371.921875 271.746094 371.375 270.769531 370.707031 269.863281 Z M 187.503906 64.730469 L 256.300781 160.097656 L 191.964844 139.050781 C 191.46875 138.890625 190.941406 138.917969 190.445312 138.796875 C 189.960938 138.679688 189.46875 138.597656 188.96875 138.554688 C 188.472656 138.488281 188 138.300781 187.503906 138.300781 C 187.007812 138.300781 186.550781 138.488281 186.050781 138.554688 C 185.554688 138.609375 185.058594 138.691406 184.574219 138.796875 C 184.0625 138.894531 183.542969 138.894531 183.082031 139.050781 L 119.132812 159.976562 L 118.730469 160.113281 L 187.535156 64.726562 L 187.507812 64.726562 Z M 90.296875 199.488281 L 165.199219 174.964844 L 173.195312 172.359375 L 173.195312 314.691406 L 38.902344 270.734375 Z M 201.828125 314.664062 L 201.828125 172.359375 L 284.722656 199.488281 L 336.121094 270.695312 L 201.8125 314.664062 Z M 201.828125 314.664062 " fill-opacity="1" fill-rule="nonzero"/></svg>