<svg xmlns="http://www.w3.org/2000/svg" viewBox="0 0 24 24" version="1.1" id="Amazon-Redshift-Data-Warehousing--Streamline-Ultimate.svg">
	<path d="M11.52 0.255168C8.424479999999999 0.345024 5.773728 1.1655840000000002 4.512768 2.424336C4.087944 2.848392 3.8394 3.27348 3.745272 3.736968L3.6955199999999997 3.9819120000000003 3.7022399999999998 12.088968L3.7089359999999996 20.196 3.759456 20.364C3.871992 20.738256000000003 4.020024 21.015624 4.271448 21.323328C4.896816 22.08864 6.058536 22.74336 7.551504 23.17188C8.507016 23.446128 9.590112000000001 23.627952 10.776 23.713176C11.280528 23.749416 12.639888000000001 23.7498 13.14 23.713848C15.179784 23.567111999999998 16.825944 23.172984000000003 18.129432 22.519272C19.006632 22.079328 19.624416 21.558504 19.985808 20.954256C20.125848 20.720088 20.201208 20.524848 20.256768 20.252232C20.303184 20.024448 20.304000000000002 19.882776 20.304000000000002 12C20.304000000000002 3.9927360000000003 20.303928 3.979128 20.254488000000002 3.735768C20.199816000000002 3.466536 20.064432 3.1520400000000004 19.897272 2.905896C19.032432 1.632336 16.826064000000002 0.6782400000000001 14.014415999999999 0.361968C13.303248 0.281952 12.209688000000002 0.235152 11.52 0.255168M11.46 1.262664C9.418968 1.3391520000000001 7.64304 1.7236799999999999 6.348 2.36952C5.854008 2.615856 5.549448 2.8228560000000003 5.248416 3.116832C4.6933679999999995 3.658848 4.575384 4.122168 4.850544 4.6794720000000005C4.936248 4.853016 4.99188 4.9242479999999995 5.217768 5.149584C5.38908 5.320488 5.56956 5.471640000000001 5.724 5.573568C6.902616 6.351384 8.702088 6.853128000000001 10.872 7.008936C11.354232000000001 7.0435680000000005 12.651864 7.043280000000001 13.128 7.008431999999999C15.31788 6.848159999999999 17.093111999999998 6.353424 18.276 5.57376C18.432744 5.47044 18.608424 5.322984 18.782424 5.1486719999999995C19.006824 4.923864 19.064712 4.849704 19.149624 4.678344C19.339608000000002 4.294992 19.339488 4.009032 19.149216 3.6245279999999998C19.06368 3.45168 19.006776 3.3787680000000004 18.781992 3.1537919999999997C18.602040000000002 2.973696 18.431208 2.8314 18.253895999999997 2.713896C17.111544 1.956984 15.27 1.442112 13.188 1.297536C12.807312000000001 1.271112 11.785128 1.250472 11.46 1.262664M4.704 13.003872C4.704 17.976144 4.711512 19.977672000000002 4.73052 20.068824C4.975704 21.244560000000003 7.231776000000001 22.32504 10.104000000000001 22.642319999999998C10.977504 22.7388 12.288768000000001 22.766592 13.128 22.706400000000002C15.209472 22.55712 16.984656 22.08048 18.149256 21.358176C18.687912 21.024096 19.083576 20.605392000000002 19.232592 20.211792L19.284 20.076 19.290192 13.070904C19.295184 7.444776 19.290456 6.070416 19.266192 6.0892800000000005C19.249584000000002 6.1021920000000005 19.165632 6.167400000000001 19.079616 6.234168C18.39576 6.765000000000001 17.301528 7.252632 16.108968 7.557984C14.812296 7.890000000000001 13.523208 8.0418 12 8.0418C10.476792000000001 8.0418 9.187704 7.890000000000001 7.891032 7.557984C6.698472000000001 7.252632 5.60424 6.765000000000001 4.920384 6.234168C4.8343679999999996 6.167400000000001 4.750512 6.102288 4.734 6.089448C4.710024000000001 6.0708 4.704 7.457232 4.704 13.003872M15.029712000000002 10.177176C14.28312 10.31028 13.630920000000001 10.92924 13.448927999999999 11.677392C13.388424 11.926055999999999 13.394304 12.410207999999999 13.460832000000002 12.66C13.524023999999999 12.897264 13.642776 13.142784 13.78584 13.332C13.84572 13.4112 13.895015999999998 13.484544 13.895351999999999 13.495008C13.895904 13.511088 13.249104 15.214128 13.234392 15.235344000000001C13.231608 15.239376000000002 13.160616000000001 15.223608 13.076664 15.200280000000001C12.962736000000001 15.168624 12.838728 15.158184 12.588000000000001 15.159096C12.293256000000001 15.160176 12.225552 15.168336 12.036648 15.2256C11.918208 15.261503999999999 11.758272 15.32448 11.681280000000001 15.36552L11.54124 15.44016 11.486208 15.38208C11.455919999999999 15.350136000000001 11.191296 15.056928 10.898159999999999 14.730504L10.365168 14.137032 10.448472 13.926504C10.563576 13.635648000000002 10.593096000000001 13.47444 10.59252 13.14C10.591752 12.695064 10.504272 12.399096 10.269936 12.048792C9.97644 11.610024 9.546792 11.31108 9.04584 11.197152C8.842296 11.150856000000001 8.426952 11.144304 8.208384 11.183928C7.49724 11.31288 6.874992000000001 11.8908 6.6672 12.615312000000001C6.589320000000001 12.886944000000002 6.589104 13.416383999999999 6.666792000000001 13.687176C6.872496 14.404152 7.4726159999999995 14.965296 8.18892 15.110448C8.47848 15.169104 8.943528 15.147120000000001 9.204 15.062424C9.3096 15.028104 9.4548 14.967408 9.52668 14.927544000000001C9.63132 14.869512 9.663024 14.861136000000002 9.685824 14.885544C9.701496 14.902296 9.969912 15.200448 10.28232 15.548136000000001C10.664832 15.9738 10.843416000000001 16.189368 10.829112 16.208136000000003C10.781952 16.269984 10.676904 16.55808 10.643928 16.716C10.598016 16.93584 10.598495999999999 17.356008000000003 10.644936 17.580816C10.79064 18.286272 11.351568 18.880560000000003 12.064824000000002 19.085208C12.220032 19.129728 12.311448 19.138896 12.6 19.138896C12.888552 19.138896 12.979968 19.129728 13.135176 19.085208C13.848047999999999 18.88068 14.409576 18.285216000000002 14.555424 17.579112C14.601047999999999 17.358216000000002 14.602008000000001 16.935192 14.557368 16.724567999999998C14.495448 16.432392 14.354351999999999 16.141224 14.140368 15.864L14.094047999999999 15.804 14.425991999999999 14.943024C14.608560000000002 14.469503999999999 14.762208 14.077776 14.767439999999999 14.072568C14.772672 14.067336000000001 14.851439999999998 14.080944 14.942471999999999 14.102808C15.187368000000001 14.161584000000001 15.65184 14.155199999999999 15.9 14.089632C16.280832 13.989 16.5714 13.813176 16.861416 13.507871999999999C17.252208 13.09644 17.425512 12.613824000000001 17.392608 12.028584C17.368704 11.603544 17.239392 11.255424 16.982352 10.924224C16.726008 10.593912000000001 16.348248 10.33488 15.96 10.22316C15.754800000000001 10.16412 15.244464 10.138896 15.029712000000002 10.177176M15.094608000000001 11.203872C14.617368 11.378976000000002 14.341872 11.830656000000001 14.422536 12.305712000000002C14.557896 13.103112 15.526392 13.420728 16.093439999999998 12.853704C16.632024 12.315096 16.40556 11.415936 15.675552000000001 11.194368C15.525768000000001 11.148912000000001 15.23124 11.153712 15.094608000000001 11.203872M8.46 12.16992C8.277144 12.19824 8.197992000000001 12.228144 8.055192 12.322944000000001C7.622376 12.610224 7.484736 13.155168 7.725696 13.627512C7.802568000000001 13.778184000000001 8.005296 13.965384 8.182512 14.049384C8.329032 14.118816 8.35836 14.124 8.604000000000001 14.124C8.840568000000001 14.124 8.882352000000001 14.117280000000001 9.006072 14.059296C9.295488 13.923672000000002 9.522024 13.627991999999999 9.576576000000001 13.314744C9.690744 12.659232 9.1146 12.068520000000001 8.46 12.16992M12.387167999999999 16.177872C12.117864 16.230792 11.815488 16.474944 11.699688 16.732992C11.527464 17.116775999999998 11.609424 17.561496 11.906232000000001 17.853672C12.101184 18.045576 12.336408000000002 18.144000000000002 12.6 18.144000000000002C12.863591999999999 18.144000000000002 13.098816 18.045576 13.293768000000002 17.853672C13.686336 17.467248 13.687920000000002 16.833096 13.297248000000002 16.448952000000002C13.048680000000001 16.204512 12.731832 16.110120000000002 12.387167999999999 16.177872" stroke="none" fill="currentColor" fill-rule="evenodd"></path>
</svg>
