<svg xmlns="http://www.w3.org/2000/svg" fill="none" viewBox="-0.5 -0.5 48 48" id="Snowflake-Icon--Streamline-Svg-Logos.svg" height="48" width="48"><desc>Snowflake Icon Streamline Icon: https://streamlinehq.com</desc><path fill="#29B5E8" d="M18.504536458333334 29.565741666666668c1.4651760416666666 0.10403645833333333 2.6259781249999996 1.304103125 2.6562833333333336 2.775986458333333l0.0006364583333333333 0.058994791666666664v11.162744791666666c0 1.5731781249999999 -1.288240625 2.8478572916666667 -2.870035416666666 2.8478572916666667 -1.570240625 0 -2.8426677083333334 -1.2441291666666665 -2.8730708333333332 -2.791114583333333l-0.0005874999999999999 -0.056742708333333336V37.31922395833333l-5.46639375 3.1249124999999998c-1.3706864583333334 0.7903833333333333 -3.1236885416666667 0.3225864583333333 -3.9195552083333336 -1.0361052083333333 -0.7819135416666666 -1.344640625 -0.33541354166666665 -3.063176041666667 0.9962041666666667 -3.8640854166666663l0.053021874999999996 -0.031137500000000002 9.756955208333332 -5.575423958333333c0.523903125 -0.3024645833333333 1.1063604166666665 -0.4190833333333333 1.6665416666666666 -0.3716427083333333Zm11.586577083333333 0.3332104166666666 0.06863958333333332 0.03843229166666667 9.754947916666667 5.575423958333333c1.374652083333333 0.7867604166666666 1.841078125 2.5329083333333333 1.050890625 3.8952229166666665 -0.7816197916666666 1.3410177083333332 -2.501477083333333 1.8142 -3.8655541666666666 1.0662635416666668l-0.053658333333333336 -0.030158333333333332 -5.462770833333333 -3.1249124999999998v6.24424375c0 1.5731781249999999 -1.2842260416666667 2.8478572916666667 -2.873658333333333 2.8478572916666667 -1.5702895833333332 0 -2.839436458333333 -1.2441291666666665 -2.869790625 -2.791114583333333l-0.0005385416666666667 -0.056742708333333336V32.400722916666666c0 -1.4987125 1.1688802083333334 -2.7295739583333334 2.6569197916666667 -2.8349812500000002 0.5341843749999999 -0.045384375 1.0888333333333333 0.0593375 1.5945729166666667 0.3332104166666666ZM4.744973125 15.421385416666665l0.053810104166666664 0.029962499999999996L14.548409375 21.03044375c0.6855145833333333 0.391715625 1.14298125 1.0130947916666666 1.336121875 1.7085479166666666 0.06413541666666667 0.22403333333333333 0.0934125 0.44777291666666663 0.104721875 0.67180625 0.0072947916666666664 0.30931875 -0.033242708333333336 0.6226520833333333 -0.13066979166666667 0.9267322916666666 -0.19891770833333333 0.6388572916666666 -0.62275 1.2100052083333332 -1.2450593749999999 1.5863479166666667l-0.06511458333333334 0.038236458333333334L4.798783229166666 31.544784375c-1.3763264583333332 0.7850958333333332 -3.1309735416666666 0.3205791666666667 -3.9208672916666667 -1.0377697916666666 -0.7856706041666666 -1.3481166666666666 -0.33893854166666665 -3.058378125 0.9967133333333332 -3.8604625l0.052488229166666664 -0.030794791666666665 5.4481127083333325 -3.11404375 -5.4481127083333325 -3.122611458333333C0.5507910416666666 19.59199895833333 0.08037979166666666 17.855104166666667 0.8779159375 16.495090625c0.7796320833333333 -1.3442979166666666 2.499127083333333 -1.8165499999999999 3.8670571875 -1.0737052083333332Zm41.378476875 1.0737052083333332c0.7955729166666666 1.3600135416666665 0.3251322916666667 3.096908333333333 -1.0508416666666665 3.884011458333333l-5.448475 3.122611458333333 5.448475 3.11404375c1.3759739583333335 0.7883760416666666 1.8464145833333332 2.5256135416666665 1.0508416666666665 3.891257291666667 -0.7938593749999999 1.3583489583333335 -2.550190625 1.822865625 -3.921170833333333 1.0377697916666666L32.44532395833333 25.962114583333335c-0.6506072916666666 -0.375265625 -1.1023947916666665 -0.9636958333333333 -1.3028791666666666 -1.6245843749999997 -0.09541979166666666 -0.3040802083333333 -0.13962916666666667 -0.6174135416666667 -0.12866249999999999 -0.9267322916666666 0.005679166666666666 -0.22403333333333333 0.038579166666666664 -0.44777291666666663 0.10109895833333332 -0.67180625 0.19514791666666667 -0.695453125 0.6525656249999999 -1.3164895833333332 1.3304427083333332 -1.7085479166666666l9.756955208333332 -5.579095833333333c1.3709802083333333 -0.7850958333333332 3.1273114583333332 -0.3182291666666667 3.921170833333333 1.0437427083333333Zm-22.02919375 1.6822083333333333c0.16523437500000002 0 0.39298854166666664 0.09292291666666666 0.5089708333333334 0.21120624999999998l4.05521875 4.013457291666666c0.11568854166666667 0.11466041666666665 0.20939479166666666 0.34231666666666666 0.20939479166666666 0.5063760416666666v1.1834208333333331c0 0.1604364583333333 -0.09370624999999999 0.38779895833333333 -0.20939479166666666 0.5007947916666666l-4.05521875 4.0138c-0.11598229166666667 0.117940625 -0.34006458333333334 0.21448645833333332 -0.5089708333333334 0.21448645833333332h-1.192478125c-0.16386354166666667 0 -0.39161770833333337 -0.09654583333333332 -0.5093135416666666 -0.21448645833333332l-4.0531625 -4.0138c-0.11603124999999999 -0.11299583333333334 -0.20978645833333331 -0.3403583333333333 -0.20978645833333331 -0.5007947916666666v-1.1834208333333331c0 -0.164059375 0.09375520833333333 -0.391715625 0.20978645833333331 -0.5063760416666666l4.0531625 -4.013457291666666c0.11769583333333333 -0.11828333333333334 0.34545 -0.21120624999999998 0.5093135416666666 -0.21120624999999998h1.192478125Zm-0.5737916666666666 3.42541875h-0.045531249999999995c-0.16356979166666666 0 -0.391275 0.09488125 -0.5053479166666667 0.20919895833333332l-1.1741677083333333 1.1583541666666666c-0.11769583333333333 0.11994791666666665 -0.20777916666666665 0.3459395833333333 -0.20777916666666665 0.508040625v0.04548229166666666c0 0.16009375 0.09008333333333333 0.3841270833333333 0.20777916666666665 0.5007458333333333l1.1741677083333333 1.1616833333333332c0.1157375 0.11466041666666665 0.341778125 0.20919895833333332 0.5053479166666667 0.20919895833333332h0.045531249999999995c0.1639125 0 0.39196041666666664 -0.09453854166666666 0.5076489583333332 -0.20919895833333332l1.1742166666666667 -1.1616833333333332c0.11568854166666667 -0.11661875 0.21473124999999998 -0.3406520833333333 0.21473124999999998 -0.5007458333333333v-0.04548229166666666c0 -0.16210104166666667 -0.09904270833333334 -0.3880927083333333 -0.21473124999999998 -0.508040625l-1.1742166666666667 -1.1583541666666666c-0.11568854166666667 -0.11431770833333334 -0.3437364583333333 -0.20919895833333332 -0.5076489583333332 -0.20919895833333332ZM28.709949999999996 0.5887924999999999c1.5702895833333332 0 2.8426677083333334 1.2444669791666667 2.8731197916666664 2.7873154166666665l0.0005385416666666667 0.056576249999999995V9.678915625l5.462770833333333 -3.128535416666667c1.3726447916666666 -0.7864177083333334 3.1273114583333332 -0.3199427083333333 3.9192125 1.0397770833333333 0.7799552083333333 1.3481656249999998 0.33565833333333334 3.0597 -0.9977708333333332 3.8607562499999997l-0.053119791666666666 0.031137500000000002 -9.754947916666667 5.580711458333333c-0.5239520833333333 0.2987927083333333 -1.1047447916666666 0.4170760416666666 -1.6632125 0.37129999999999996 -1.46845625 -0.10731666666666667 -2.626125 -1.3093416666666666 -2.6563322916666667 -2.7796583333333333l-0.0005874999999999999 -0.058994791666666664V3.4326841666666668c0 -1.5688844791666667 1.2808968749999998 -2.8438916666666665 2.8703291666666666 -2.8438916666666665Zm-10.418529166666666 0c1.56275 0 2.838946875 1.2444669791666667 2.8694479166666667 2.7873154166666665l0.0005874999999999999 0.056576249999999995V14.595409375000001c0 1.497096875 -1.172209375 2.7299166666666665 -2.6569197916666667 2.838653125 -0.5358 0.04381770833333333 -1.092015625 -0.06251979166666667 -1.5979020833333333 -0.3333572916666666l-0.06863958333333332 -0.03794270833333333 -9.756955208333332 -5.580711458333333c-1.3726937499999998 -0.7871031249999999 -1.8414208333333333 -2.5259562499999997 -1.0492260416666666 -3.89189375 0.7855364583333333 -1.3420458333333334 2.5034843749999998 -1.8139552083333332 3.865945833333333 -1.0697885416666666l0.053609375 0.03001145833333333 5.46639375 3.128535416666667V3.4326841666666668c0 -1.5688844791666667 1.2842260416666667 -2.8438916666666665 2.873658333333333 -2.8438916666666665Z" stroke-width="1"></path></svg>
