<svg xmlns="http://www.w3.org/2000/svg" viewBox="241.79 -30.39 189.48 189.48">
  <g transform="matrix(1.33 0 0 1.33 0 4.05e-6)">
    <path d="m284 81.5c-.269-.575-.39-.864-.535-1.14-3.89-7.4-7.77-14.8-11.7-22.2-.394-.742-.344-1.18.195-1.82 6.19-7.23 12.3-14.5 18.5-21.7.219-.254.414-.523.496-.976-1.8.469-3.6.933-5.41 1.41-7.47 1.98-15 3.95-22.4 5.96-.695.187-1.01-.016-1.36-.594-4.24-7.09-8.51-14.2-12.8-21.2-.219-.367-.458-.723-.926-1.03-.344 1.89-.692 3.77-1.03 5.66-1.19 6.67-2.38 13.3-3.56 20-.129.719-.305 1.44-.367 2.16-.059.688-.414.942-1.04 1.14-8.81 2.77-17.6 5.56-26.4 8.35-.386.121-.765.281-1.18.656 7.2 2.86 14.4 5.72 21.7 8.63-.266.211-.442.375-.637.5-4.5 2.91-9.01 5.82-13.5 8.74-.539.352-.965.402-1.57.129-5.38-2.42-10.8-4.8-16.2-7.2-2.42-1.08-4.59-2.51-6.28-4.59-3.83-4.68-3.07-10 2.03-13.3 1.67-1.07 3.57-1.86 5.46-2.48 8.63-2.81 17.3-5.52 25.9-8.24.726-.231 1.06-.555 1.2-1.34 1.16-6.68 2.35-13.4 3.56-20 .644-3.57.984-7.22 2.72-10.5.665-1.26 1.46-2.49 2.42-3.54 3.44-3.82 8.23-3.96 11.9-.328 1.23 1.23 2.28 2.67 3.19 4.16 4 6.53 7.94 13.1 11.9 19.7.465.777.883.933 1.74.707 9.65-2.59 19.3-5.14 29-7.69 2-.527 4.01-.718 6.06-.335 4.45.832 6.4 4.22 4.89 8.53-.683 1.96-1.87 3.61-3.2 5.18-6.74 7.93-13.5 15.9-20.2 23.8-.551.648-.562 1.11-.18 1.84 4.04 7.61 8.04 15.2 12.1 22.9.961 1.82 1.7 3.72 1.72 5.81.047 4.76-3.44 8.66-8.17 9.36-2.65.387-5.11-.179-7.6-.945-6.05-1.87-12.1-3.71-18.2-5.54-.563-.168-.778-.391-.879-.996-.696-4.27-1.46-8.53-2.2-12.8-.019-.117.016-.242.036-.504 6.91 1.91 13.8 3.79 20.9 5.76" style="fill-rule:evenodd;fill:#e25a1c"/>
  </g>
</svg>
