<?xml version="1.0" encoding="UTF-8" standalone="no"?>
<svg
   width="2607.2561"
   height="633.54077"
   viewBox="0 0 2607.2561 633.54077"
   version="1.1"
   xml:space="preserve"
   style="clip-rule:evenodd;fill-rule:evenodd;stroke-linejoin:round;stroke-miterlimit:2"
   id="svg21"
   xmlns="http://www.w3.org/2000/svg"
   xmlns:svg="http://www.w3.org/2000/svg"><g
     id="g4"
     transform="translate(-640.395,-216.60425)"><path
       d="M 1189.548,346.133 972.371,220.751 c -20.411,-11.771 -45.898,2.916 -45.898,26.459 v 112.098 l 120.09,69.333 c 14.255,8.208 23.003,23.327 23.003,39.742 v 303.789 l 120.09,-69.333 c 14.255,-8.208 23.003,-23.327 23.003,-39.742 v -277.33 c 0,-16.415 -8.748,-31.534 -23.003,-39.742 z"
       style="fill:url(#_Linear1);fill-rule:nonzero"
       id="path1" /><path
       d="M 1046.455,428.749 829.278,303.367 c -20.411,-11.771 -45.898,2.916 -45.898,26.459 v 112.098 l 79.484,45.898 40.606,23.435 c 1.728,0.972 3.456,2.16 5.076,3.348 1.62,1.188 3.132,2.592 4.536,3.996 8.424,8.532 13.391,20.087 13.391,32.398 v 299.037 c 5.292,0 10.583,-1.404 15.335,-4.104 l 127.758,-73.76 V 468.383 c 0,-16.415 -8.748,-31.534 -23.003,-39.742 z"
       style="fill:url(#_Linear2);fill-rule:nonzero"
       id="path2" /><path
       d="m 924.313,850.037 c -1.728,-0.108 -3.564,-0.432 -5.292,-0.864 1.728,0.432 3.456,0.756 5.292,0.864 z"
       style="fill:#4d9b3a;fill-rule:nonzero"
       id="path3" /><path
       d="m 926.473,551.107 c 0,-12.311 -4.968,-23.867 -13.391,-32.398 -1.404,-1.404 -2.916,-2.7 -4.536,-3.996 -1.62,-1.296 -3.24,-2.376 -5.076,-3.348 L 862.864,487.93 686.293,385.983 c -20.411,-11.771 -45.898,2.916 -45.898,26.459 v 250.764 c 0,16.415 8.748,31.534 23.003,39.742 l 120.09,69.333 127.758,73.76 c 4.752,2.7 10.044,4.104 15.335,4.104 V 551.108 h -0.108 z"
       style="fill:url(#_Linear3);fill-rule:nonzero"
       id="path4" /></g><path
     d="m 714.08,418.20075 v -235.265 h 146.77 v 39.948 H 758.98 v 56.843 h 94.215 v 39.316 H 758.98 v 59.211 h 102.165 v 39.948 H 714.081 Z"
     style="fill-rule:nonzero"
     id="path5" /><path
     d="m 943.358,316.04175 v 102.159 h -44.163 v -176.528 h 41.661 l 0.589,36.474 c 4.613,-12.316 11.139,-21.842 19.579,-28.579 8.44,-6.737 18.99,-10.105 31.65,-10.105 17.076,0 30.767,5.895 41.072,17.684 10.305,11.79 15.457,28.053 15.457,48.79 v 112.264 h -44.163 v -104.054 c 0,-10.947 -2.625,-19.526 -7.876,-25.737 -5.251,-6.211 -12.537,-9.316 -21.861,-9.316 -9.422,0 -17.101,3.237 -23.039,9.711 -5.938,6.474 -8.906,15.553 -8.906,27.237 z"
     style="fill-rule:nonzero"
     id="path6" /><path
     d="m 1171.606,241.67275 v 36.158 h -30.767 v 88.738 c 0,10.947 5.005,16.421 15.016,16.421 1.668,0 3.999,-0.237 6.993,-0.711 2.993,-0.474 5.324,-0.921 6.993,-1.342 l 6.33,35.527 c -4.907,1.579 -9.79,2.684 -14.648,3.316 -4.858,0.632 -9.495,0.947 -13.911,0.947 -16.488,0 -29.099,-4.29 -37.833,-12.869 -8.735,-8.579 -13.102,-20.974 -13.102,-37.185 v -92.843 h -22.671 v -36.158 h 22.671 v -42 h 44.163 v 42 h 30.767 z"
     style="fill-rule:nonzero"
     id="path7" /><path
     d="m 1203.327,418.20075 v -176.528 h 42.691 v 30.79 h 1.767 c 3.042,-10.842 8.121,-19.079 15.236,-24.711 7.115,-5.632 15.285,-8.447 24.511,-8.447 5.005,0 9.765,0.526 14.279,1.579 v 42.316 c -1.963,-0.632 -4.833,-1.184 -8.612,-1.658 -3.778,-0.474 -7.287,-0.711 -10.526,-0.711 -10.207,0 -18.622,3.421 -25.247,10.263 -6.625,6.842 -9.937,15.737 -9.937,26.684 v 100.422 h -44.163 z"
     style="fill-rule:nonzero"
     id="path8" /><path
     d="m 1395.361,421.67375 c -16.488,0 -30.767,-3.816 -42.838,-11.447 -12.071,-7.632 -21.37,-18.263 -27.897,-31.895 -6.526,-13.632 -9.79,-29.5 -9.79,-47.606 0,-18.211 3.263,-34.158 9.79,-47.843 6.526,-13.684 15.825,-24.342 27.897,-31.974 12.071,-7.632 26.351,-11.447 42.838,-11.447 16.488,0 30.767,3.816 42.838,11.447 12.071,7.632 21.37,18.29 27.897,31.974 6.526,13.684 9.79,29.632 9.79,47.843 0,18.105 -3.263,33.974 -9.79,47.606 -6.526,13.632 -15.825,24.263 -27.897,31.895 -12.071,7.632 -26.351,11.447 -42.838,11.447 z m 0,-37.263 c 11.777,0 20.659,-5.105 26.645,-15.316 5.987,-10.211 8.98,-23.053 8.98,-38.527 0,-15.579 -2.993,-28.448 -8.98,-38.606 -5.987,-10.158 -14.868,-15.237 -26.645,-15.237 -11.777,0 -20.634,5.079 -26.572,15.237 -5.938,10.158 -8.906,23.027 -8.906,38.606 0,15.474 2.969,28.316 8.906,38.527 5.938,10.211 14.795,15.316 26.572,15.316 z"
     style="fill-rule:nonzero"
     id="path9" /><path
     d="m 1509.668,484.20075 v -242.529 h 43.427 v 29.684 h 2.061 c 1.963,-4.632 4.833,-9.421 8.612,-14.369 3.778,-4.947 8.784,-9.105 15.016,-12.474 6.232,-3.368 14.01,-5.053 23.333,-5.053 12.169,0 23.308,3.368 33.417,10.105 10.108,6.737 18.181,16.842 24.216,30.316 6.036,13.474 9.053,30.263 9.053,50.369 0,19.579 -2.944,36.132 -8.833,49.658 -5.888,13.526 -13.887,23.79 -23.995,30.79 -10.108,7 -21.493,10.5 -34.153,10.5 -8.931,0 -16.488,-1.632 -22.671,-4.895 -6.183,-3.263 -11.213,-7.29 -15.089,-12.079 -3.877,-4.79 -6.845,-9.553 -8.906,-14.29 h -1.325 v 94.264 h -44.163 z m 78.611,-101.054 c 11.482,0 20.242,-4.947 26.277,-14.842 6.036,-9.895 9.053,-22.632 9.053,-38.211 0,-15.474 -2.993,-28.132 -8.98,-37.974 -5.987,-9.842 -14.77,-14.763 -26.351,-14.763 -11.384,0 -20.143,4.79 -26.277,14.369 -6.134,9.579 -9.201,22.369 -9.201,38.369 0,16 3.091,28.842 9.274,38.527 6.183,9.684 14.917,14.526 26.204,14.526 z"
     style="fill-rule:nonzero"
     id="path10" /><path
     d="m 1696.108,480.72775 10.158,-35.685 5.447,1.421 c 8.931,2.632 16.242,2.447 21.934,-0.553 5.692,-3 9.029,-8.921 10.01,-17.763 l 1.178,-9.474 -61.829,-177.002 h 46.96 l 27.676,91.58 c 2.257,7.684 4.171,15.342 5.741,22.974 1.57,7.632 3.141,15.342 4.711,23.132 1.767,-7.895 3.607,-15.658 5.52,-23.29 1.914,-7.632 4.048,-15.237 6.404,-22.816 l 28.853,-91.58 h 46.372 l -69.925,197.37 c -5.005,14.211 -12.194,25.5 -21.566,33.869 -9.372,8.368 -22.302,12.553 -38.79,12.553 -5.888,0 -11.384,-0.447 -16.488,-1.342 -5.103,-0.895 -9.225,-2.026 -12.366,-3.395 z"
     style="fill-rule:nonzero"
     id="path11" /><path
     d="m 2034.393,418.20075 h -77.139 v -235.265 h 77.875 c 21.984,0 40.9,4.711 56.75,14.132 15.85,9.421 28.044,22.895 36.582,40.421 8.538,17.526 12.807,38.5 12.807,62.922 0,24.527 -4.269,45.579 -12.807,63.158 -8.538,17.579 -20.806,31.079 -36.803,40.5 -15.997,9.421 -35.085,14.132 -57.265,14.132 z m -32.239,-41.527 h 30.031 c 21.1,0 37.097,-6.105 47.991,-18.316 10.894,-12.211 16.34,-31.527 16.34,-57.948 0,-26.316 -5.422,-45.553 -16.267,-57.711 -10.845,-12.158 -26.768,-18.237 -47.77,-18.237 h -30.325 z"
     style="fill-rule:nonzero"
     id="path12" /><path
     d="m 2222.894,421.67375 c -15.703,0 -28.755,-4.447 -39.158,-13.342 -10.403,-8.895 -15.604,-22.079 -15.604,-39.553 0,-13.158 2.944,-23.474 8.833,-30.948 5.888,-7.474 13.543,-12.947 22.965,-16.421 9.422,-3.474 19.53,-5.737 30.325,-6.79 14.132,-1.474 24.314,-3.026 30.546,-4.658 6.232,-1.632 9.348,-5.342 9.348,-11.132 v -0.789 c 0,-7.474 -2.233,-13.263 -6.698,-17.369 -4.465,-4.105 -10.82,-6.158 -19.064,-6.158 -8.538,0 -15.408,1.974 -20.61,5.921 -5.201,3.947 -8.685,8.763 -10.452,14.448 l -40.483,-7.263 c 4.22,-15.263 12.636,-27.106 25.247,-35.527 12.611,-8.421 28.093,-12.632 46.445,-12.632 11.777,0 22.989,2 33.638,6 10.648,4 19.334,10.395 26.056,19.184 6.723,8.79 10.084,20.342 10.084,34.658 v 118.896 h -41.808 v -24.474 h -1.472 c -4.024,8.211 -10.01,14.921 -17.96,20.132 -7.949,5.211 -18.009,7.816 -30.178,7.816 z m 12.513,-33.316 c 10.305,0 18.72,-3.211 25.247,-9.632 6.526,-6.421 9.79,-14.316 9.79,-23.684 v -19.105 c -1.767,1.368 -4.637,2.553 -8.612,3.553 -3.975,1 -8.17,1.895 -12.587,2.684 -4.416,0.789 -8.244,1.395 -11.482,1.816 -8.146,1.263 -14.721,3.737 -19.726,7.421 -5.005,3.684 -7.508,9.053 -7.508,16.105 0,6.842 2.331,12.026 6.993,15.553 4.662,3.526 10.624,5.29 17.886,5.29 z"
     style="fill-rule:nonzero"
     id="path13" /><path
     d="m 2436.715,241.67275 v 36.158 h -30.767 v 88.738 c 0,10.947 5.005,16.421 15.016,16.421 1.668,0 3.999,-0.237 6.993,-0.711 2.993,-0.474 5.324,-0.921 6.993,-1.342 l 6.33,35.527 c -4.907,1.579 -9.79,2.684 -14.648,3.316 -4.858,0.632 -9.495,0.947 -13.911,0.947 -16.488,0 -29.099,-4.29 -37.833,-12.869 -8.735,-8.579 -13.102,-20.974 -13.102,-37.185 v -92.843 h -22.671 v -36.158 h 22.671 v -42 h 44.163 v 42 h 30.767 z"
     style="fill-rule:nonzero"
     id="path14" /><path
     d="m 2515.838,421.67375 c -15.703,0 -28.755,-4.447 -39.158,-13.342 -10.403,-8.895 -15.604,-22.079 -15.604,-39.553 0,-13.158 2.944,-23.474 8.833,-30.948 5.888,-7.474 13.543,-12.947 22.965,-16.421 9.422,-3.474 19.53,-5.737 30.325,-6.79 14.132,-1.474 24.314,-3.026 30.546,-4.658 6.232,-1.632 9.348,-5.342 9.348,-11.132 v -0.789 c 0,-7.474 -2.233,-13.263 -6.698,-17.369 -4.465,-4.105 -10.82,-6.158 -19.064,-6.158 -8.538,0 -15.408,1.974 -20.61,5.921 -5.201,3.947 -8.685,8.763 -10.452,14.448 l -40.483,-7.263 c 4.22,-15.263 12.636,-27.106 25.247,-35.527 12.611,-8.421 28.093,-12.632 46.445,-12.632 11.777,0 22.989,2 33.638,6 10.648,4 19.334,10.395 26.056,19.184 6.723,8.79 10.084,20.342 10.084,34.658 v 118.896 h -41.808 v -24.474 h -1.472 c -4.024,8.211 -10.01,14.921 -17.96,20.132 -7.949,5.211 -18.009,7.816 -30.178,7.816 z m 12.513,-33.316 c 10.305,0 18.72,-3.211 25.247,-9.632 6.526,-6.421 9.79,-14.316 9.79,-23.684 v -19.105 c -1.767,1.368 -4.637,2.553 -8.612,3.553 -3.975,1 -8.17,1.895 -12.587,2.684 -4.416,0.789 -8.244,1.395 -11.482,1.816 -8.146,1.263 -14.721,3.737 -19.726,7.421 -5.005,3.684 -7.508,9.053 -7.508,16.105 0,6.842 2.331,12.026 6.993,15.553 4.662,3.526 10.624,5.29 17.886,5.29 z"
     style="fill-rule:nonzero"
     id="path15" /><defs
     id="defs21"><linearGradient
       id="_Linear1"
       x1="0"
       y1="0"
       x2="1"
       y2="0"
       gradientUnits="userSpaceOnUse"
       gradientTransform="matrix(0,-555.56776,555.56776,0,1069.5657,772.17235)"><stop
         offset="0"
         style="stop-color:#86198f;stop-opacity:1"
         id="stop15" /><stop
         offset="1"
         style="stop-color:#86198f;stop-opacity:1"
         id="stop16" /></linearGradient><linearGradient
       id="_Linear2"
       x1="0"
       y1="0"
       x2="1"
       y2="0"
       gradientUnits="userSpaceOnUse"
       gradientTransform="matrix(0,-550.81599,550.81599,0,926.47275,850.03651)"><stop
         offset="0"
         style="stop-color:#c026d3;stop-opacity:1"
         id="stop17" /><stop
         offset="1"
         style="stop-color:#d946ef;stop-opacity:1"
         id="stop18" /></linearGradient><linearGradient
       id="_Linear3"
       x1="0"
       y1="0"
       x2="1"
       y2="0"
       gradientUnits="userSpaceOnUse"
       gradientTransform="matrix(0,-468.30807,468.30807,0,783.48781,850.1445)"><stop
         offset="0"
         style="stop-color:#d946ef;stop-opacity:1"
         id="stop19" /><stop
         offset="0.39"
         style="stop-color:#e570f7;stop-opacity:1"
         id="stop20" /><stop
         offset="1"
         style="stop-color:#e879f9;stop-opacity:1"
         id="stop21" /></linearGradient></defs></svg>
