<svg width="226" height="81" xmlns="http://www.w3.org/2000/svg"><g transform="translate(.4 .018)" fill="none"><path d="M31.287 1.057C30.055.322 28.914.014 27.542.014c-2.086 0-3.906 1.064-3.906 3.108 0 1.771 1.26 2.534 2.989 2.807l.623.098c1.365.217 2.079.469 2.079 1.148 0 .756-.84 1.183-1.925 1.183-1.26 0-2.415-.49-3.122-1.057l-1.015 1.575c1.05.847 2.646 1.281 4.13 1.281 2.107 0 4.011-1.029 4.011-3.192 0-1.708-1.372-2.457-3.122-2.744l-.553-.091c-1.176-.196-2.023-.413-2.023-1.134 0-.742.777-1.176 1.876-1.176 1.071 0 2.009.357 2.779.833l.924-1.596zM47.19.182h-1.96v5.789c0 1.61-.91 2.317-2.261 2.317s-2.261-.707-2.261-2.317V.182h-1.96v5.887c0 2.709 1.729 4.088 4.221 4.088s4.221-1.379 4.221-4.088V.182zm11.85 6.216c2.324 0 3.57-1.218 3.57-3.101 0-1.897-1.246-3.115-3.584-3.115h-3.997v9.8h1.953V6.398h2.058zm-.049-4.417c1.064 0 1.617.441 1.617 1.316 0 .882-.553 1.316-1.617 1.316h-2.009V1.981h2.009zm15.021 4.417c2.324 0 3.57-1.218 3.57-3.101 0-1.897-1.246-3.115-3.584-3.115h-3.997v9.8h1.953V6.398h2.058zm-.049-4.417c1.064 0 1.617.441 1.617 1.316 0 .882-.553 1.316-1.617 1.316h-2.009V1.981h2.009zM89.663 0c-3.017 0-5.145 2.156-5.145 5.082 0 2.926 2.128 5.082 5.145 5.082 3.017 0 5.152-2.156 5.152-5.082C94.815 2.156 92.68 0 89.663 0zm0 1.876c1.806 0 3.108 1.302 3.108 3.206s-1.302 3.206-3.108 3.206c-1.799 0-3.108-1.302-3.108-3.206s1.309-3.206 3.108-3.206zM102.297.182v9.8h1.953V6.083h.574l2.856 3.899h2.366l-3.017-3.927c1.883-.182 3.003-1.281 3.003-2.891 0-1.876-1.253-2.982-3.591-2.982h-4.144zm4.109 1.799c1.036 0 1.617.371 1.617 1.183 0 .826-.553 1.218-1.617 1.218h-2.156V1.981h2.156zM124.661.182h-8.029v1.827h3.038v7.973h1.953V2.009h3.038V.182zm14.384 8.008h-5.369V5.936h5.068V4.144h-5.068v-2.17h5.313V.182h-7.266v9.8h7.322V8.19zm7.727-8.008v9.8h4.039c3.066 0 5.089-1.946 5.089-4.9 0-2.954-2.023-4.9-5.089-4.9h-4.039zm4.018 1.827c2.065 0 3.066 1.274 3.066 3.073 0 1.778-1.001 3.073-3.066 3.073h-2.065V2.009h2.065zM172.572.182v9.8h4.242c2.352 0 3.689-.924 3.689-2.807 0-1.057-.735-1.897-1.631-2.198a2.186 2.186 0 0 0 1.421-2.079c0-1.869-1.435-2.716-3.717-2.716h-4.004zm4.144 5.726c1.078 0 1.757.252 1.757 1.169 0 .938-.679 1.19-1.757 1.19l-2.191-.007V5.908h2.191zm-.196-4.004c.966 0 1.736.21 1.736 1.134 0 .902-.679 1.132-1.577 1.153l-2.154.002V1.904h1.995zM196.028.182l-3.724 5.936v3.864h-1.953V6.111L186.578.182h2.296l2.464 4.158 2.464-4.158h2.226z" fill="#004153"/><g transform="translate(0 25.882)"><g fill="#004153"><path d="M0 1L12.5 1 12.5 53.5 0 53.5z"/><path d="M102.9 53.5L102.9 1 90.4 1 90.4 33.1 66.4 1 60.9 1 54.4 1 54.4 33.1 30.5 1 18.5 1 18.5 53.5 31 53.5 31 21.5 54.9 53.5 57 53.5 64.1 53.5 67 53.5 67 21.5 90.9 53.5z"/><path d="M134.9 12c8.5 0 14.6 6.2 14.6 15.2s-6.1 15.2-14.6 15.2c-8.6 0-14.6-6.2-14.6-15.2S126.4 12 134.9 12m0-12c-16.2 0-27.7 11.6-27.7 27.2s11.5 27.2 27.7 27.2 27.7-11.6 27.7-27.2S151.1 0 134.9 0"/></g><path d="M193.8 12c8.5 0 14.6 6.2 14.6 15.2 0 1.7-.2 3.3-.6 4.8l-1.7-2.3h-13.6l8.3 11.1c-2 1-4.4 1.6-6.9 1.6-8.5 0-14.6-6.2-14.6-15.2-.1-8.9 6-15.2 14.5-15.2m0-12c-16.2 0-27.7 11.6-27.7 27.2s11.5 27.2 27.7 27.2c5.5 0 10.2-1.5 14.2-4.1l2.3 3.1H225l-8.3-11.2c2.9-4.2 4.6-9.1 4.6-15C221.5 11.6 210 0 193.8 0" fill="#FF9C66"/></g></g></svg>