<?xml version="1.0" encoding="UTF-8"?>
<svg title="Open Data Contract Standard" xmlns="http://www.w3.org/2000/svg" viewBox="0 0 161.0024281 162.3345538">
  <defs>
    <style>
      .cls-1 {
        fill: #b6408d;
      }

      .cls-2 {
        fill: #2e1354;
      }
    </style>
  </defs>
  <path class="cls-2" d="M71.8891697,18.3330481c4.4469416-.1850186,9.2651419-.556369,13.5273091,.1850186,2.779168,.3700474,10.191762,5.0033208,11.4892947,5.1884412-.5563792,.9263859-.9263758,1.8527922-1.6677736,2.7791782-2.2241528,3.3355472-2.9655099,7.0410095-3.3355472,10.9329257-.3700373,4.0770366,1.482755,14.6400472,2.0378109,16.1213669,.9263758,2.2241528,1.482755,5.0033208,2.779168,7.0410095,1.8527922,2.9655099,4.0770468,6.1147151,7.5973683,7.412594,3.8919264,1.6677736,8.1537475,2.779168,12.2307943,3.8919264,1.482755,.3700373,2.9655099,.9263758,4.6334057,.9263758,3.3355472-.1850186,6.4859739-.7413978,9.6367264-1.2977363,2.0378109-.3700373,5.9295947-5.5597,6.1147355-7.7824887,.3700373,.5563792,5.7448204,16.3078208,5.1884412,19.0870091-.7413978,5.9295947-7.412594,14.0836883-8.8952471,16.3078208-1.8527922-3.5206676-5.3732359-3.7054623-8.8952268-3.7054623-4.4469416,0-9.0803676-.5563792-13.5273091,.1850186-5.7448204,.7413978-11.1180359,2.779168-14.0836883,8.5239884-1.482755,2.5941493-3.3355472,5.0033208-5.0033208,7.5973683-.3700373,.5563792-3.5206676,8.5239884-3.1505285,9.4502623,2.0378109,5.9295947,4.8182003,11.4892947,8.5239884,16.4926155,1.1113944,1.2977363,.7413978,1.1113944,1.2977363,2.4091714-.5563792,.7413978-9.2651419,7.412594-13.1570683,7.7825091-4.6334057,.5563792-7.5973683,.5563792-12.2307943-.5563792-4.6334057-1.1113944-17.4192355-7.9689528-18.9018683-8.1537475,2.0378109-4.4469416,3.7054623-7.5973683,5.5596796-12.6006891,.5563792-1.6677736,.3700373-3.8919264-.1850186-5.5596796-1.482755-4.2618211-3.7054623-8.3388679-6.6710944-11.4892947-4.6334057-4.8182003-10.191762-8.3388679-17.2341049-8.7087831-.556369,0-2.5941595-.1850186-3.1505285-.3700373-2.9654997-.7413978-4.8182003,1.482755-7.0410095,2.5941493-1.8527922,.9263758-3.5206676,2.2241528-5.5596898,3.5206676-.1850186-1.1113944-4.0770366-8.8952471-4.6334057-12.2307943-.1850186-1.482755-.556369-2.779168-.7413877-4.2618211-.1850186-2.2241528-.1850186-4.6334057-.556369-6.8562148-.556369-5.3732359,2.037821-9.8215211,4.2618313-14.4535831,.556369-1.1113944,.7413877-2.2241528,1.2977261-3.7054623,.7413877,.5563792,1.2977261,1.482755,2.2241426,1.8527922,3.5206676,1.482755,7.0410095,3.3355472,10.748131,3.7054623,4.0770366,.3700373,8.5239884,.1850186,12.6006993-1.6677736,.1850186,0,.3700474-.3700373,.556369-.3700373,6.4859739,.5563792,8.8952471-4.8182003,12.4159147-8.5239884,2.0378109-2.0378109,4.0770468-4.4469416,5.5597-7.0410095,2.9655099-5.3732359,5.9295947-10.748131,3.1505285-17.2341049-1.1113944-2.7791782-2.2241528-5.3732359-3.8919264-7.9689528-1.1113944-1.6677736-2.5941493-2.9654997-4.0770468-4.4469517-.5550763-.5537631,10.1931056-4.8158591,13.1583916-5.0019873l.0000611-.0006922Zm-12.9722736,65.6002108c-1.2977363-.3700373-2.9655099-.7413978-4.8182003-1.1113944-1.6677736-.3700373-3.3355472-.3700373-5.0033208-.5563792-1.6677736-.1850186-14.4535933-.1850186-14.6400472-.9263758-.556369,1.1113944-.9263859,2.0378109-1.482755,3.1505285,2.4091612,.3700373,4.8182003,.3700373,7.2274634,.9263758,3.7054623,.5563792,7.2274634,1.6677736,10.9329257,2.0378109,6.1147355,.5563792,11.8595355,2.5941493,17.047651,5.9295947,2.4091714,1.482755,4.4469416,3.8919264,5.7448204,6.3011792,2.5941493,5.0033208,2.779168,10.9329155,3.5206676,16.4926155,.3700373,2.779168,0,5.5597,0,8.3388679,1.8527922,.3700373,2.9655099-.3700373,2.9655099-2.0378109,.1850186-4.0770468,.1850186-8.3388679,0-12.4159147,0-1.8527922-.5563792-3.7054623-.9263758-5.3732359,1.2977363-1.482755,2.4091714-2.9655099,3.5206676-4.4469416,2.9655099-4.2618211,6.6710944-7.5973683,11.4892947-9.6367264,3.3355472-1.482755,6.8562148-2.5941493,10.3765566-3.1505285,3.5206676-.5563792,7.0410095-.1850186,10.5630004-.5563792,.9263758-.1850186,2.2241528-.9263758,2.5941493-1.8527922,.7413978-1.482755-.5563792-2.5941493-2.0378109-2.779168-2.4091714-.5563792-4.8182003-.5563792-7.2274736-1.2977363-3.7054623-1.1113944-7.7825091,.9263758-11.1180563-1.8527922-2.779168-2.2241528-5.9295947-4.0770468-7.9689528-6.8562148-6.4859739-8.1537475-7.9689528-17.7891303-7.9689528-27.795782,0-2.037821-.3700373-4.0770366-.7413978-6.3011792-2.4091714,.9263859-2.779168,2.9654997-2.9655099,4.4469517-.7413978,4.8182003-.9263758,9.8215211-1.482755,14.6400472-.3700373,3.1505285-1.1113944,6.1147151-1.1113944,9.2651419,0,3.5206676-2.5941493,5.1884412-4.2618211,7.5973683-1.6676718,2.4089271-4.4469416,4.2618211-6.8562148,6.3011792-1.2951304,.9250728-3.1479226,2.0365283-5.3718922,3.5193443l.0002239,.0003461Z"/>
  <path class="cls-1" d="M147.1257913,39.4604129c-.9263758,2.9654997-1.8527922,6.1147253-2.9655099,9.0803574-1.482755,3.7054623-2.779168,7.412594-5.9295947,10.0066415-2.779168,2.0378109-5.1884412,4.6334057-7.9689528,6.3011792-1.8527922,1.1113944-4.4469416,1.1113944-6.6710944,1.482755-4.6334057,.7413978-8.5239884-2.0378109-12.7858299-3.1505285-6.1147355-1.482755-9.2651419-6.4859739-12.7858299-11.1180461-2.2241528-2.9654997-1.6677736-5.1884412-.9263758-7.9689528,.9263758-3.7054623,1.8527922-7.5973785,2.5941493-11.4892947,.7413978-3.5206676,2.779168-5.9296049,5.1884412-8.3388679,2.0378109-1.8527922,4.0770468-3.7054623,6.4859739-5.0033208,1.482755-.9263859,3.7054623-.556369,5.5596796-1.1114046,6.8562148-2.4091612,12.0443302,1.8527922,17.7891506,4.2618313,2.5941493,1.1114046,5.0033208,2.9654997,7.412594,4.4469517,.3700373,.1850186,.9263758,.3700474,1.1113944,.7413877,.7413978,3.8905827,2.2241528,7.5973785,3.8919264,11.8595355l-.0001222-.0002239Zm-26.6843774,12.2294507c2.4091714-.556369,5.5596796-.556369,7.412594-3.7054623,.5563792-.9263859,1.1113944-2.037821,1.2977363-3.1505285,.5563792-3.5206676,1.482755-7.2274634-1.8527922-9.8215211-1.6677736-1.2977261-4.0770468-2.7791782-5.5596796-2.4091612-3.3355472,.9263859-6.3011792,3.1505285-9.2651419,5.0033208-.7413978,.3700474-.9263758,1.8527922-1.1113944,2.7791782,0,.9263859,.5563792,1.8527922,.7413978,2.7791782,.5550763,5.7461437,3.5193443,8.155081,8.3375243,8.5253219l-.0002443-.0003257Z"/>
  <path class="cls-1" d="M51.6924458,21.2983544c2.5941595,3.3355472,6.1147253,5.9296049,7.7824989,10.0066415,1.2977363,3.3355472,2.4091714,6.6710944,3.1505285,10.0066415,.7413978,2.7791782-1.482755,5.1884412-2.4091714,7.5973785-1.6677736,4.0770468-4.8182003,7.0410095-7.9689528,10.0066415-.3700373,.3700373-9.6367264,5.5597-10.5630106,5.9295947-5.0033208,1.8527922-10.0066415,1.482755-14.4535933-1.2977363-2.9654997-1.6677736-6.1147253-3.7054623-7.9689528-6.4859739-2.2241426-3.1505285-4.6334057-6.4859739-4.8182003-10.748131,0-1.482755,.556369-3.1505285,.9263859-4.6334057,.556369-2.7791782,.7413877-5.5596898,1.2977261-8.1537475,.7413877-2.7791782,1.1114046-6.1147253,2.7791782-8.3388679,2.5941595-3.8919162,4.8182003-8.5239884,10.0066415-9.6367264,3.1505285-.7413877,6.4859739-.9263859,9.8215211-.7413877,1.6677736,0,3.3355472,1.1114046,5.0033208,1.6677736,1.1127075,.3739461,6.3011792,3.3382141,7.4139173,4.8208673l.0001629,.0004377Zm-15.7514517,32.0576031c4.4469517,.1850186,7.4125838-1.8527922,9.0803574-5.9296049,.7413877-1.6677736,1.482755-3.5206676,2.5941595-5.1884412,.9263859-1.6677736,1.1114046-5.9296049-.1850186-7.2274634-.1850186-.3700474-.7413877-.556369-1.1114046-.7413877-2.5941595-.9263859-5.3732359-1.2977261-8.1537475-.556369-4.6334057,1.2977261-7.9689528,3.8919162-9.4502725,8.5239884-.556369,1.6677736-.9263859,3.7054623-.556369,5.5596898,.9263859,2.9654997,5.0019873,5.5596898,7.7824989,5.5596898l-.0002036-.0001018Z"/>
  <path class="cls-1" d="M142.3059216,124.5168557c-.1850186,2.2241528-.3700373,5.5597-1.1113944,8.7087831-.3700373,1.482755-1.6677736,2.779168-2.5941493,4.0770468-.7413978,1.1113944-1.6677736,2.4091714-2.5941493,3.3355472-2.4091714,2.779168-11.3045,6.1147151-12.4159147,6.4859739-1.482755,.3700373-2.9655099,.7413978-4.4469416,.7413978-1.2977363,0-8.5239884-2.4091714-9.8215211-3.5206676-2.5941493-2.4091714-5.1884412-4.6334057-7.412594-7.2274532-1.482755-1.6677736-2.779168-3.8919264-3.8919264-5.9295947-1.2977363-2.4091714-2.9655099-4.6334057-3.7054623-7.2274532-.5563792-1.482755,.1850186-3.5206676,.3700373-5.1884412,.1850186-1.1113944,.9263758-2.0378109,1.1113944-3.1505285,.1850186-3.3355472,1.6677736-5.5597,4.2618211-7.5973683,1.482755-1.2977363,2.779168-2.779168,4.6334057-3.5206676,3.7054623-1.2977363,7.412594-3.1505285,11.6744151-2.2241528,2.0378109,.3700373,4.2618211,0,6.3011792,.1850186,7.2274532,.5563792,12.6006891,4.4469416,16.3078208,10.5630207,2.779168,4.6320823,3.3342442,6.8562148,3.3342442,11.4892947l-.0002647,.0002443Zm-18.900545-3.3355472c.1850186-2.9655099-2.5941493-6.1147151-5.3732359-6.8562148-2.5941493-.7413978-3.3355472,1.482755-5.0033208,2.4091714-1.1113944,.7413978-2.5941493,1.6677736-3.3355472,2.779168-2.4091714,3.7054623-1.1113944,8.7087831,2.779168,10.9329155,.9263758,.5563792,5.7448204,1.1113944,6.8562148,1.6677736,.3700373,.1850186,1.2977363-.5563792,1.482755-1.1113944,.3700373-1.1113944,4.2618211-4.6334057,3.7054623-6.1147151-.3700373-1.2977363-.7413978-2.5954523-1.1113944-3.7067856l-.0001018,.0000814Z"/>
  <path class="cls-1" d="M52.4329377,135.2639993c-1.2977261,4.8182003-5.5596898,5.7448204-9.0803574,7.412594-5.5596898,2.5941493-11.3045,1.482755-17.047651,.5563792-2.2241426-.3700373-4.6334057-.9263758-6.3011792-2.0378109-1.2977261-.9263758-2.037821-3.1505285-2.5941595-4.8182003-.9263859-2.9655099-1.6677736-5.9295947-2.4091612-8.8952268-.1850186-.9263758-.1850186-2.0378109,0-3.1505285,1.482755-7.2274532,5.1884412-12.7858299,11.6744151-16.3078208,1.2977261-.7413978,3.3355472-.9263758,5.0033208-.7413978,3.3355472,.5563792,6.4859739,1.2977363,9.6367264,2.5941493,5.3732359,2.2241528,10.3765566,5.3732359,13.8985577,10.0066415,.7400949,.9263758-1.6690765,12.0456535-2.7804709,15.3812007l-.0000407,.0000204Zm-31.1326626,4.8168567c.1850186,0,.1850186,.1850186,.3700474,.1850186-.1850186,.0013029-.3700474-.1850186-.3700474-.1850186-.1850186,0-.3700474-.1850186-.556369-.3700373-.1850186,0-.1850186-.1850186-.3700474-.1850186,.1850186,0,.1850186,.1850186,.3700474,.1850186,.3713504,0,.3713504,.1850186,.556369,.3700373Zm6.6710944-19.6420446c-2.037821,2.5941493-1.8527922,8.1537475,.3700474,10.7481412,.556369,.7413978,1.2977261,1.6677736,2.037821,1.6677736,2.2241426,.3700373,4.4469517,.5563792,6.6710944,.7413978,.1850186,0,.3700474-.1850186,.556369-.1850186,.7413877-.7413978,1.2977261-1.6677736,2.2241426-2.2241528,2.9654997-2.2241528,3.7054623-5.5596796,4.0770366-8.8952268,.1850186-1.1113944-1.1114046-2.4091714-2.037821-3.5206676-.7413877-.9263758-1.8527922-2.4091714-2.9654997-2.4091714-2.5941595,0-5.3732359-.7413978-7.5973785,1.482755-.3700474,.3700373-2.7791782,1.8527922-3.3355472,2.5941493l-.0002647,.0000204Z"/>
  <path class="cls-1" d="M94.3140672,81.3392113c-5.7448204,4.2618211-11.1180359,7.9689528-14.6400472,13.7121038-1.8527922,0-2.5941493-1.2977363-3.5206676-3.1505285-2.2241528-5.0033208-6.3011792-7.7825091-11.3045-9.4502827-.1850186,0-.3700373-.1850186-.7413978-.5563792,7.412594-2.4091714,11.6744151-8.1537475,16.4926155-14.0836883,3.7067856,5.1897849,7.7838324,10.1931056,13.7134271,13.5286528l.00057,.0001222Z"/>
  <path class="cls-2" d="M121.7389263,36.6785576c2.2241528,1.1114046,4.2618211,4.6334057,2.9655099,6.8562148-.9263758,1.6677736-2.779168,3.1505285-4.6334057,3.8919162-1.482755,.556369-3.1505285-.9263859-3.8919264-2.5941595-.3700373-.7413877-.7413978-1.2977261-.9263758-1.8527922-.7413978-2.4091612-.1850186-5.7434665,3.1505285-7.2261197,1.1113944-.556369,2.0378109,1.6665623,3.3355472,.9251644l.0001222-.0002239Z"/>
  <path class="cls-2" d="M34.0874282,45.9457251c-.3700474-1.8527922-1.8527922-3.7054623-1.6677736-5.3732359,0-1.1114046,.9263859-2.5941595,1.482755-3.7054623,.556369-1.482755,4.2618313-2.9654997,4.6334057-2.9654997,3.7054623-.556369,6.1147253,1.2977261,5.7448102,5.1884412-.1850186,2.5941595-.1850186,5.3732359-2.5941595,7.2274634-.7426906,.5550661-6.858556,2.9641968-7.598712-.3713504l-.0003257-.0003563Z"/>
  <path class="cls-2" d="M117.1058667,117.8457613c1.6677736,2.0378109,3.5206676,.927638,3.5206676,3.8919264,0,1.6677736-.9263758,5.9297983-2.0378109,6.2998356-1.2977363,.1850186-3.1505285-.1850186-4.2618211-1.1113944-2.4091714-1.8527922-1.482755-5.0033208,.7413978-7.2274736,.5550763-.7413978,1.2964334-1.2977363,2.0378109-1.8527922l-.0002443-.0001018Z"/>
  <path class="cls-2" d="M27.9700257,126.1846293c.556369-1.2977363,.7413877-5.9297983,1.482755-7.0413352,.556369-1.1113944,4.8182003,1.4815334,6.1147253,2.0379126,1.1114046,.5563792,2.2241426,.7413978,3.3355472,1.482755,2.4091612,1.6677736-.9263859,5.9295947-1.1114046,5.9295947-.9263859,.3700373-2.037821,1.1113944-2.7791782,.7413978-2.2241426-.7413978-4.2618313-1.8540952-7.042343-3.1505285l-.0001018,.0002036Z"/>
</svg>